<svg width="80" height="80" viewBox="0 0 80 80" fill="none" xmlns="http://www.w3.org/2000/svg">
<mask id="path-1-inside-1_5_2" fill="white">
<path d="M63.9437 59.0342L62.2747 42.4785C62.2107 41.8429 61.5751 41.4295 60.968 41.6287L41.4922 48.0192C40.4676 48.3554 39.3617 48.3513 38.3396 48.0076L19.4113 41.642C18.8013 41.4369 18.1592 41.853 18.0972 42.4935L16.4889 59.1128C16.41 59.9276 16.6543 60.7514 17.256 61.3065C26.0181 69.3895 52.7443 70.5348 63.1047 61.3377C63.7516 60.7635 64.0304 59.8948 63.9437 59.0342Z"/>
<path d="M40.9003 12.3672L77.6844 25.59C80.3457 26.5466 80.3265 30.3169 77.6557 31.2464L40.8714 44.0481C40.2289 44.2717 39.5296 44.2703 38.888 44.0442L19.0392 37.0481C18.2855 36.7824 18.1452 35.8027 18.8296 35.3899C22.497 33.1781 28.9322 30.5673 39.8384 26.3081C40.9937 25.8569 41.4321 24.4461 40.7307 23.4231C40.2304 22.6934 39.2968 22.3987 38.4679 22.7083C26.5192 27.1708 18.4497 30.1421 14.893 33.0126C10.0238 39.2485 8.4923 44.9518 11.7152 52.8747C12.7079 56.058 13.4143 57.5542 12.2127 66.2474C12.1839 66.5165 12.0496 66.7747 11.8182 66.9151C8.32801 69.0333 0.223077 66.37 0.331456 63.7621C0.337283 63.6219 0.400408 63.4957 0.486318 63.3849L0.490775 63.3792C0.528002 63.3312 0.565566 63.2827 0.59726 63.231C3.9173 57.8087 6.8765 53.7315 6.26833 49.9183C5.65713 46.0861 6.84141 35.898 9.61972 33.4742L2.56806 31.2425C-0.0877256 30.3065 -0.106981 26.5575 2.53905 25.5942L38.8592 12.3714C39.5182 12.1314 40.2404 12.13 40.9003 12.3672Z"/>
</mask>
<path d="M14.3696 27.0354L9.09642 27.4971L10.143 39.4514L15.4163 38.9897L14.3696 27.0354ZM62.2747 42.4785L50.3353 43.6821L50.3353 43.6821L62.2747 42.4785ZM63.9437 59.0342L52.0042 60.2377V60.2377L63.9437 59.0342ZM63.1047 61.3377L55.1383 52.3636L55.1383 52.3636L63.1047 61.3377ZM17.256 61.3065L25.3926 52.4863L17.256 61.3065ZM16.4889 59.1128L4.5447 57.9569L16.4889 59.1128ZM18.0972 42.4935L6.15302 41.3376L18.0972 42.4935ZM19.4113 41.642L23.2364 30.268L19.4113 41.642ZM38.3396 48.0076L34.5145 59.3816H34.5145L38.3396 48.0076ZM41.4922 48.0192L45.2335 59.4211H45.2335L41.4922 48.0192ZM60.968 41.6287L64.7093 53.0306L64.7093 53.0306L60.968 41.6287ZM77.6844 25.59L73.6251 36.8825L73.6251 36.8825L77.6844 25.59ZM40.9003 12.3672L36.841 23.6598L36.841 23.6598L40.9003 12.3672ZM38.8592 12.3714L42.9644 23.6473L42.9644 23.6473L38.8592 12.3714ZM2.53905 25.5942L-1.56611 14.3182L-1.56612 14.3182L2.53905 25.5942ZM40.8714 44.0481L36.9272 32.7148L36.9271 32.7148L40.8714 44.0481ZM77.6557 31.2464L73.7115 19.9131V19.9131L77.6557 31.2464ZM19.0392 37.0481L15.0501 48.3657L15.0501 48.3657L19.0392 37.0481ZM38.888 44.0442L34.899 55.3617L38.888 44.0442ZM14.893 33.0126L7.35664 23.6742L6.28345 24.5403L5.43472 25.6273L14.893 33.0126ZM38.4679 22.7083L42.6663 33.9498L42.6663 33.9498L38.4679 22.7083ZM39.8384 26.3081L35.4731 15.1303V15.1303L39.8384 26.3081ZM18.8296 35.3899L12.6322 25.1141L12.6322 25.1141L18.8296 35.3899ZM40.7307 23.4231L50.6278 16.6373L50.6278 16.6373L40.7307 23.4231ZM2.56806 31.2425L-1.42102 42.5601L-1.23783 42.6247L-1.05265 42.6833L2.56806 31.2425ZM9.61972 33.4742L17.5084 42.5169L33.6017 28.4773L13.2404 22.0335L9.61972 33.4742ZM6.26833 49.9183L-5.58189 51.8083L6.26833 49.9183ZM0.59726 63.231L10.8311 69.4974L10.8312 69.4972L0.59726 63.231ZM0.331456 63.7621L12.3211 64.2603L0.331456 63.7621ZM11.8182 66.9151L5.59243 56.6565L5.59232 56.6565L11.8182 66.9151ZM12.2127 66.2474L0.325728 64.6044L0.300431 64.7874L0.28078 64.9711L12.2127 66.2474ZM11.7152 52.8747L23.1711 49.3021L23.0209 48.8204L22.8307 48.353L11.7152 52.8747ZM0.486318 63.3849L-8.99529 56.0297L-8.99717 56.0321L0.486318 63.3849ZM0.490775 63.3792L9.97238 70.7344L9.97288 70.7337L0.490775 63.3792ZM50.3353 43.6821L52.0042 60.2377L75.8831 57.8306L74.2142 41.275L50.3353 43.6821ZM55.1383 52.3636C53.3393 53.9605 47.8202 55.9341 39.7755 55.8037C36.1336 55.7447 32.6917 55.2483 29.9182 54.4657C26.9553 53.6297 25.6497 52.7235 25.3926 52.4863L9.11942 70.1267C13.2434 73.931 18.5643 76.1991 23.4007 77.5638C28.4265 78.9819 33.9565 79.7126 39.3865 79.8006C49.4855 79.9643 62.5097 77.912 71.0712 70.3119L55.1383 52.3636ZM28.4331 60.2687L30.0414 43.6494L6.15302 41.3376L4.5447 57.9569L28.4331 60.2687ZM15.5862 53.0161L34.5145 59.3816L42.1647 36.6335L23.2364 30.268L15.5862 53.0161ZM45.2335 59.4211L64.7093 53.0306L57.2268 30.2268L37.751 36.6173L45.2335 59.4211ZM34.5145 59.3816C37.9898 60.5503 41.7497 60.5642 45.2335 59.4211L37.751 36.6173C39.1855 36.1466 40.7337 36.1523 42.1647 36.6335L34.5145 59.3816ZM30.0414 43.6494C29.3595 50.6956 22.2961 55.2726 15.5862 53.0161L23.2364 30.268C15.3066 27.6012 6.9589 33.0103 6.15302 41.3376L30.0414 43.6494ZM25.3926 52.4863C28.0697 54.9559 28.6422 58.1085 28.4331 60.2687L4.5447 57.9569C4.17794 61.7468 5.23889 66.5469 9.11942 70.1267L25.3926 52.4863ZM52.0042 60.2377C51.7666 57.8814 52.4694 54.7327 55.1383 52.3636L71.0712 70.3119C75.0338 66.7942 76.2942 61.9083 75.8831 57.8306L52.0042 60.2377ZM74.2142 41.275C73.3812 33.0112 65.1184 27.6373 57.2268 30.2268L64.7093 53.0306C58.0317 55.2217 51.0401 50.6746 50.3353 43.6821L74.2142 41.275ZM81.7438 14.2974L44.9596 1.07465L36.841 23.6598L73.6251 36.8825L81.7438 14.2974ZM34.754 1.09538L-1.56611 14.3182L6.64421 36.8701L42.9644 23.6473L34.754 1.09538ZM44.8156 55.3814L81.5999 42.5797L73.7115 19.9131L36.9272 32.7148L44.8156 55.3814ZM15.0501 48.3657L34.899 55.3617L42.8771 32.7266L23.0283 25.7305L15.0501 48.3657ZM22.4293 42.3509C22.4165 42.3612 22.5187 42.2783 22.7899 42.1091C23.0567 41.9426 23.4316 41.7269 23.941 41.4615C24.9773 40.9216 26.3595 40.2851 28.1758 39.5231C31.8562 37.979 36.5867 36.2204 42.6663 33.9498L34.2695 11.4667C28.4003 13.6586 23.1217 15.6169 18.8911 17.3918C14.9317 19.0529 10.5924 21.0629 7.35664 23.6742L22.4293 42.3509ZM35.4731 15.1303C25.0126 19.2154 17.3947 22.2418 12.6322 25.1141L25.0269 45.6658C27.5992 44.1144 32.8519 41.9192 44.2037 37.4859L35.4731 15.1303ZM30.8336 30.2089C27.1418 24.8244 29.471 17.4743 35.4731 15.1303L44.2037 37.4859C52.5165 34.2395 55.7223 24.0677 50.6278 16.6373L30.8336 30.2089ZM42.6663 33.9498C38.3358 35.5672 33.4535 34.03 30.8336 30.2089L50.6278 16.6373C47.0072 11.3567 40.2577 9.23023 34.2695 11.4667L42.6663 33.9498ZM23.0283 25.7305C30.7743 28.4608 33.9831 40.2643 25.0269 45.6658L12.6322 25.1141C2.30733 31.3411 5.79661 45.1041 15.0501 48.3657L23.0283 25.7305ZM36.9271 32.7148C38.8545 32.0441 40.9525 32.0483 42.8771 32.7266L34.899 55.3617C38.1066 56.4924 41.6034 56.4993 44.8156 55.3814L36.9271 32.7148ZM-1.56612 14.3182C-14.7962 19.1348 -14.7 37.8797 -1.42102 42.5601L6.55714 19.925C14.5246 22.7332 14.5822 33.9802 6.64421 36.8701L-1.56612 14.3182ZM44.9597 1.07466C41.6599 -0.111501 38.0489 -0.104163 34.754 1.09538L42.9644 23.6473C40.9874 24.3671 38.8208 24.3715 36.841 23.6598L44.9597 1.07466ZM73.6251 36.8825C65.6415 34.0126 65.699 22.7016 73.7115 19.9131L81.5999 42.5797C94.954 37.9322 95.0499 19.0805 81.7438 14.2974L73.6251 36.8825ZM1.73107 24.4316C-1.33651 27.1077 -2.77778 30.6034 -3.4418 32.4326C-4.25502 34.6729 -4.79675 37.0398 -5.15671 39.1534C-5.82357 43.069 -6.18247 48.0427 -5.58189 51.8083L18.1186 48.0283C18.1491 48.2196 18.0791 47.7793 18.1315 46.609C18.1779 45.57 18.3029 44.3554 18.5026 43.1828C18.7096 41.9673 18.9467 41.0933 19.1178 40.6218C19.2005 40.394 19.2003 40.4493 19.0626 40.6893C18.9555 40.8761 18.4959 41.6554 17.5084 42.5169L1.73107 24.4316ZM-5.58189 51.8083C-5.86963 50.0042 -5.13528 49.2103 -5.84318 50.6367C-6.14789 51.2507 -6.59457 52.0354 -7.27428 53.1494C-7.60736 53.6954 -7.96295 54.2664 -8.36546 54.9123C-8.75863 55.5433 -9.19302 56.2401 -9.63672 56.9647L10.8312 69.4972C12.1463 67.3494 14.2605 64.1155 15.6549 61.3058C17.1046 58.3848 19.0145 53.6456 18.1186 48.0283L-5.58189 51.8083ZM-11.6582 63.2638C-11.9492 70.2654 -6.99926 74.2402 -5.48528 75.3453C-3.26952 76.9627 -0.803476 77.9871 1.31016 78.6146C3.49683 79.2638 6.01345 79.698 8.60717 79.6826C11.0301 79.6682 14.6163 79.254 18.0441 77.1737L5.59232 56.6565C6.49486 56.1088 7.26165 55.8823 7.68745 55.7866C8.12248 55.6889 8.39679 55.6834 8.46429 55.683C8.56011 55.6824 8.40286 55.685 8.14057 55.6071C7.80524 55.5076 8.04723 55.5096 8.66474 55.9603C8.9773 56.1885 9.76752 56.8084 10.5501 57.9507C11.3587 59.1308 12.4434 61.3176 12.3211 64.2603L-11.6582 63.2638ZM24.0997 67.8905C24.7353 63.2924 25.0054 59.7097 24.7477 56.5264C24.468 53.0713 23.5564 50.5378 23.1711 49.3021L0.259338 56.4472C0.86672 58.3949 0.804762 58.2012 0.825985 58.4633C0.869217 58.9972 0.891779 60.5093 0.325728 64.6044L24.0997 67.8905ZM22.8307 48.353C21.8778 46.0105 21.9854 44.9497 22.071 44.4848C22.1842 43.8702 22.5909 42.6522 24.3512 40.3978L5.43472 25.6273C2.32585 29.6088 -0.467817 34.3604 -1.53191 40.1371C-2.62358 46.0636 -1.67033 51.8159 0.599682 57.3963L22.8307 48.353ZM18.044 77.1737C22.1557 74.6784 23.8113 70.6403 24.1446 67.5238L0.28078 64.9711C0.556585 62.3928 1.94344 58.871 5.59243 56.6565L18.044 77.1737ZM-8.99717 56.0321C-9.95677 57.2698 -11.512 59.747 -11.6582 63.2638L12.3211 64.2603C12.1866 67.4967 10.7576 69.7216 9.9698 70.7377L-8.99717 56.0321ZM-9.63661 56.9646C-9.42554 56.6199 -9.23973 56.3588 -9.13405 56.2146C-9.03865 56.0844 -8.95597 55.979 -8.99133 56.0246L9.97288 70.7337C9.97475 70.7313 10.0948 70.5777 10.2262 70.3984C10.3679 70.205 10.5884 69.8939 10.8311 69.4974L-9.63661 56.9646ZM-8.99083 56.024L-8.99528 56.0297L9.96792 70.7401L9.97238 70.7344L-8.99083 56.024ZM-1.05265 42.6833L5.99901 44.915L13.2404 22.0335L6.18877 19.8018L-1.05265 42.6833Z" fill="#2463EB" mask="url(#path-1-inside-1_5_2)"/>
</svg>
