<svg width="81" height="81" viewBox="0 0 81 81" fill="none" xmlns="http://www.w3.org/2000/svg">
<mask id="path-1-inside-1_3_20" fill="white">
<path d="M64.8124 59.884L63.1435 43.3284C63.0794 42.6927 62.4438 42.2794 61.8368 42.4786L42.361 48.8691C41.3364 49.2053 40.2305 49.2012 39.2084 48.8574L20.2801 42.4919C19.6701 42.2868 19.028 42.7028 18.966 43.3434L17.3577 59.9627C17.2788 60.7775 17.5231 61.6013 18.1248 62.1564C26.8869 70.2394 53.613 71.3847 63.9735 62.1876C64.6204 61.6133 64.8992 60.7447 64.8124 59.884Z"/>
<path d="M41.7691 13.2171L78.5532 26.4398C81.2145 27.3965 81.1953 31.1668 78.5245 32.0963L41.7401 44.898C41.0977 45.1216 40.3984 45.1202 39.7568 44.8941L19.908 37.898C19.1542 37.6323 19.014 36.6525 19.6983 36.2398C23.3657 34.028 29.801 31.4172 40.7072 27.158C41.8625 26.7068 42.3008 25.2959 41.5995 24.273C41.0991 23.5432 40.1655 23.2486 39.3367 23.5581C27.3879 28.0207 19.3185 30.992 15.7617 33.8624C10.8926 40.0983 9.36108 45.8016 12.584 53.7245C13.5767 56.9079 14.2831 58.4041 13.0815 67.0973C13.0527 67.3664 12.9183 67.6246 12.687 67.765C9.19678 69.8832 1.09185 67.2199 1.20023 64.612C1.20606 64.4717 1.26919 64.3456 1.3551 64.2348L1.35955 64.229C1.39678 64.181 1.43434 64.1326 1.46604 64.0809C4.78608 58.6586 7.74528 54.5814 7.13711 50.7682C6.52591 46.9359 7.71019 36.7479 10.4885 34.3241L3.43684 32.0924C0.781053 31.1563 0.761797 27.4074 3.40782 26.444L39.728 13.2212C40.387 12.9813 41.1092 12.9799 41.7691 13.2171Z"/>
</mask>
<path d="M15.2384 27.8853L9.9652 28.347L11.0118 40.3012L16.285 39.8396L15.2384 27.8853ZM63.1435 43.3284L51.204 44.532L51.204 44.532L63.1435 43.3284ZM64.8124 59.884L52.8729 61.0876L52.8729 61.0876L64.8124 59.884ZM63.9735 62.1876L56.007 53.2134L56.007 53.2134L63.9735 62.1876ZM18.1248 62.1564L26.2614 53.3362L18.1248 62.1564ZM17.3577 59.9627L5.41348 58.8068L5.41348 58.8068L17.3577 59.9627ZM18.966 43.3434L7.0218 42.1875L7.0218 42.1875L18.966 43.3434ZM20.2801 42.4919L24.1052 31.1179L24.1052 31.1179L20.2801 42.4919ZM39.2084 48.8574L35.3833 60.2315L35.3833 60.2315L39.2084 48.8574ZM42.361 48.8691L46.1022 60.2709L46.1022 60.2709L42.361 48.8691ZM61.8368 42.4786L65.578 53.8804L65.5781 53.8804L61.8368 42.4786ZM78.5532 26.4398L74.4939 37.7324L74.4939 37.7324L78.5532 26.4398ZM41.7691 13.2171L37.7098 24.5096L37.7098 24.5096L41.7691 13.2171ZM39.728 13.2212L43.8331 24.4972L43.8332 24.4972L39.728 13.2212ZM3.40782 26.444L-0.697336 15.1681L-0.697337 15.1681L3.40782 26.444ZM41.7401 44.898L37.7959 33.5647L37.7959 33.5647L41.7401 44.898ZM78.5245 32.0963L74.5802 20.763L74.5802 20.763L78.5245 32.0963ZM19.908 37.898L15.9189 49.2155L15.9189 49.2155L19.908 37.898ZM39.7568 44.8941L35.7677 56.2116L35.7677 56.2116L39.7568 44.8941ZM15.7617 33.8624L8.22542 24.5241L7.15223 25.3902L6.3035 26.4772L15.7617 33.8624ZM39.3367 23.5581L43.5351 34.7997L43.5351 34.7997L39.3367 23.5581ZM40.7072 27.158L36.3419 15.9801L36.3419 15.9801L40.7072 27.158ZM19.6983 36.2398L13.501 25.964L13.501 25.964L19.6983 36.2398ZM41.5995 24.273L51.4966 17.4872L51.4966 17.4871L41.5995 24.273ZM3.43684 32.0924L-0.552237 43.41L-0.369052 43.4746L-0.183873 43.5332L3.43684 32.0924ZM10.4885 34.3241L18.3772 43.3667L34.4704 29.3272L14.1092 22.8834L10.4885 34.3241ZM7.13711 50.7682L-4.71312 52.6582L-4.71312 52.6582L7.13711 50.7682ZM1.46604 64.0809L11.6999 70.3473L11.7 70.3471L1.46604 64.0809ZM1.20023 64.612L13.1899 65.1102L13.1899 65.1102L1.20023 64.612ZM12.687 67.765L6.46121 57.5063L6.4611 57.5064L12.687 67.765ZM13.0815 67.0973L1.19451 65.4542L1.16921 65.6372L1.14956 65.8209L13.0815 67.0973ZM12.584 53.7245L24.0399 50.152L23.8896 49.6703L23.6995 49.2029L12.584 53.7245ZM1.3551 64.2348L-8.12651 56.8796L-8.12839 56.882L1.3551 64.2348ZM1.35955 64.229L10.8412 71.5843L10.8417 71.5836L1.35955 64.229ZM51.204 44.532L52.8729 61.0876L76.7519 58.6805L75.083 42.1248L51.204 44.532ZM56.007 53.2134C54.2081 54.8104 48.6889 56.784 40.6443 56.6536C37.0024 56.5946 33.5605 56.0981 30.787 55.3156C27.8241 54.4795 26.5185 53.5734 26.2614 53.3362L9.9882 70.9766C14.1121 74.7809 19.4331 77.049 24.2695 78.4137C29.2953 79.8318 34.8253 80.5624 40.2553 80.6504C50.3543 80.8142 63.3785 78.7619 71.9399 71.1618L56.007 53.2134ZM29.3019 61.1185L30.9102 44.4993L7.0218 42.1875L5.41348 58.8068L29.3019 61.1185ZM16.455 53.8659L35.3833 60.2315L43.0334 37.4834L24.1052 31.1179L16.455 53.8659ZM46.1022 60.2709L65.578 53.8804L58.0955 31.0767L38.6198 37.4672L46.1022 60.2709ZM35.3833 60.2315C38.8585 61.4002 42.6185 61.414 46.1022 60.2709L38.6198 37.4672C40.0542 36.9965 41.6025 37.0022 43.0334 37.4834L35.3833 60.2315ZM30.9102 44.4993C30.2283 51.5455 23.1649 56.1224 16.455 53.8659L24.1052 31.1179C16.1754 28.4511 7.82767 33.8602 7.0218 42.1875L30.9102 44.4993ZM26.2614 53.3362C28.9385 55.8058 29.5109 58.9584 29.3019 61.1185L5.41348 58.8068C5.04672 62.5967 6.10767 67.3968 9.9882 70.9766L26.2614 53.3362ZM52.8729 61.0876C52.6354 58.7313 53.3382 55.5826 56.007 53.2134L71.9399 71.1618C75.9026 67.6441 77.163 62.7581 76.7519 58.6805L52.8729 61.0876ZM75.083 42.1249C74.25 33.8611 65.9872 28.4872 58.0955 31.0767L65.5781 53.8804C58.9005 56.0715 51.9089 51.5244 51.204 44.532L75.083 42.1249ZM82.6125 15.1473L45.8284 1.92452L37.7098 24.5096L74.4939 37.7324L82.6125 15.1473ZM35.6228 1.94525L-0.697336 15.1681L7.51299 37.72L43.8331 24.4972L35.6228 1.94525ZM45.6844 56.2313L82.4687 43.4296L74.5802 20.763L37.7959 33.5647L45.6844 56.2313ZM15.9189 49.2155L35.7677 56.2116L43.7459 33.5765L23.897 26.5804L15.9189 49.2155ZM23.298 43.2007C23.2853 43.2111 23.3875 43.1282 23.6587 42.959C23.9255 42.7925 24.3004 42.5768 24.8098 42.3114C25.8461 41.7715 27.2283 41.1349 29.0445 40.373C32.725 38.8289 37.4555 37.0703 43.5351 34.7997L35.1383 12.3165C29.2691 14.5085 23.9905 16.4668 19.7599 18.2417C15.8005 19.9027 11.4611 21.9128 8.22542 24.5241L23.298 43.2007ZM36.3419 15.9801C25.8813 20.0653 18.2635 23.0917 13.501 25.964L25.8957 46.5156C28.468 44.9643 33.7207 42.769 45.0725 38.3358L36.3419 15.9801ZM31.7024 31.0588C28.0106 25.6743 30.3397 18.3241 36.3419 15.9801L45.0725 38.3358C53.3853 35.0894 56.5911 24.9176 51.4966 17.4872L31.7024 31.0588ZM43.5351 34.7997C39.2046 36.417 34.3223 34.8799 31.7024 31.0588L51.4966 17.4871C47.876 12.2066 41.1265 10.0801 35.1382 12.3166L43.5351 34.7997ZM23.8971 26.5804C31.6431 29.3106 34.8519 41.1142 25.8957 46.5156L13.501 25.964C3.17611 32.1909 6.66539 45.954 15.9189 49.2155L23.8971 26.5804ZM37.7959 33.5647C39.7233 32.894 41.8213 32.8981 43.7459 33.5765L35.7677 56.2116C38.9754 57.3422 42.4722 57.3492 45.6844 56.2313L37.7959 33.5647ZM-0.697337 15.1681C-13.9274 19.9846 -13.8312 38.7296 -0.552237 43.41L7.42592 20.7749C15.3933 23.5831 15.451 34.8301 7.51299 37.72L-0.697337 15.1681ZM45.8284 1.92453C42.5287 0.738372 38.9177 0.745709 35.6228 1.94526L43.8332 24.4972C41.8562 25.2169 39.6896 25.2213 37.7098 24.5096L45.8284 1.92453ZM74.4939 37.7324C66.5102 34.8625 66.5677 23.5515 74.5802 20.763L82.4687 43.4296C95.8228 38.782 95.9187 19.9304 82.6125 15.1473L74.4939 37.7324ZM2.59985 25.2815C-0.467728 27.9576 -1.909 31.4532 -2.57302 33.2825C-3.38624 35.5228 -3.92798 37.8897 -4.28793 40.0033C-4.95479 43.9189 -5.3137 48.8926 -4.71312 52.6582L18.9873 48.8782C19.0178 49.0695 18.9479 48.6291 19.0002 47.4589C19.0467 46.4199 19.1717 45.2053 19.3714 44.0326C19.5784 42.8172 19.8155 41.9431 19.9866 41.4717C20.0693 41.2438 20.0691 41.2992 19.9314 41.5392C19.8243 41.726 19.3646 42.5053 18.3772 43.3667L2.59985 25.2815ZM-4.71312 52.6582C-5.00085 50.8541 -4.2665 50.0601 -4.97441 51.4866C-5.27911 52.1005 -5.72579 52.8853 -6.4055 53.9993C-6.73858 54.5452 -7.09417 55.1162 -7.49668 55.7622C-7.88985 56.3932 -8.32424 57.09 -8.76794 57.8146L11.7 70.3471C13.0151 68.1993 15.1293 64.9654 16.5237 62.1557C17.9734 59.2347 19.8832 54.4955 18.9873 48.8782L-4.71312 52.6582ZM-10.7894 64.1137C-11.0804 71.1153 -6.13048 75.09 -4.61651 76.1952C-2.40074 77.8126 0.0653026 78.837 2.17893 79.4645C4.3656 80.1137 6.88223 80.5479 9.47595 80.5325C11.8988 80.518 15.4851 80.1039 18.9129 78.0236L6.4611 57.5064C7.36363 56.9587 8.13042 56.7322 8.55623 56.6365C8.99126 56.5388 9.26557 56.5333 9.33306 56.5329C9.42888 56.5323 9.27164 56.5349 9.00935 56.457C8.67402 56.3574 8.91601 56.3595 9.53352 56.8102C9.84608 57.0384 10.6363 57.6583 11.4189 58.8005C12.2274 59.9807 13.3122 62.1674 13.1899 65.1102L-10.7894 64.1137ZM24.9685 68.7404C25.604 64.1423 25.8742 60.5596 25.6165 57.3763C25.3367 53.9212 24.4252 51.3877 24.0399 50.152L1.12812 57.2971C1.7355 59.2447 1.67354 59.051 1.69476 59.3132C1.73799 59.8471 1.76056 61.3591 1.19451 65.4542L24.9685 68.7404ZM23.6995 49.2029C22.7466 46.8604 22.8542 45.7996 22.9398 45.3347C23.053 44.7201 23.4597 43.5021 25.22 41.2477L6.3035 26.4772C3.19463 30.4587 0.400961 35.2103 -0.663128 40.987C-1.7548 46.9135 -0.801553 52.6658 1.46846 58.2462L23.6995 49.2029ZM18.9128 78.0236C23.0245 75.5283 24.68 71.4902 25.0134 68.3737L1.14956 65.8209C1.42536 63.2426 2.81221 59.7208 6.46121 57.5063L18.9128 78.0236ZM-8.12839 56.882C-9.08799 58.1197 -10.6433 60.5968 -10.7894 64.1137L13.1899 65.1102C13.0554 68.3466 11.6264 70.5715 10.8386 71.5876L-8.12839 56.882ZM-8.76783 57.8144C-8.55676 57.4697 -8.37095 57.2087 -8.26527 57.0645C-8.16988 56.9343 -8.0872 56.8289 -8.12255 56.8745L10.8417 71.5836C10.8435 71.5812 10.9636 71.4276 11.095 71.2482C11.2367 71.0548 11.4571 70.7437 11.6999 70.3473L-8.76783 57.8144ZM-8.12205 56.8738L-8.12651 56.8796L10.8367 71.59L10.8412 71.5843L-8.12205 56.8738ZM-0.183873 43.5332L6.86779 45.7648L14.1092 22.8834L7.05755 20.6517L-0.183873 43.5332Z" fill="#2463EB" mask="url(#path-1-inside-1_3_20)"/>
</svg>
