<svg width="448" height="49" viewBox="0 0 448 49" fill="none" xmlns="http://www.w3.org/2000/svg">
<path d="M93.4801 38.4557C92.1361 40.1837 90.6481 41.3997 89.0161 42.1037C87.3841 42.7757 85.7361 43.1117 84.0721 43.1117C81.4481 43.1117 79.0801 42.6637 76.9681 41.7677C74.8881 40.8397 73.1281 39.5757 71.6881 37.9757C70.2481 36.3757 69.1441 34.5037 68.3761 32.3597C67.6081 30.1837 67.2241 27.8477 67.2241 25.3517C67.2241 22.7917 67.6081 20.4237 68.3761 18.2477C69.1441 16.0397 70.2481 14.1197 71.6881 12.4877C73.1281 10.8557 74.8881 9.57566 76.9681 8.64766C79.0801 7.71966 81.4481 7.25566 84.0721 7.25566C85.8321 7.25566 87.5281 7.52766 89.1601 8.07166C90.8241 8.58366 92.3121 9.35166 93.6241 10.3757C94.9681 11.3997 96.0721 12.6637 96.9361 14.1677C97.8001 15.6717 98.3281 17.3997 98.5201 19.3517H91.3201C90.8721 17.4317 90.0081 15.9917 88.7281 15.0317C87.4481 14.0717 85.8961 13.5917 84.0721 13.5917C82.3761 13.5917 80.9361 13.9277 79.7521 14.5997C78.5681 15.2397 77.6081 16.1197 76.8721 17.2397C76.1361 18.3277 75.5921 19.5757 75.2401 20.9837C74.9201 22.3917 74.7601 23.8477 74.7601 25.3517C74.7601 26.7917 74.9201 28.1997 75.2401 29.5757C75.5921 30.9197 76.1361 32.1357 76.8721 33.2237C77.6081 34.3117 78.5681 35.1917 79.7521 35.8637C80.9361 36.5037 82.3761 36.8237 84.0721 36.8237C86.5681 36.8237 88.4881 36.1997 89.8321 34.9517C91.2081 33.6717 92.0081 31.8317 92.2321 29.4317H84.6481V23.8157H99.0481V42.3437H94.2481L93.4801 38.4557Z" fill="#13C216"/>
<path d="M103.934 17.5277H110.414V22.1357H110.51C110.83 21.3677 111.262 20.6637 111.806 20.0237C112.35 19.3517 112.974 18.7917 113.678 18.3437C114.382 17.8637 115.134 17.4957 115.934 17.2397C116.734 16.9837 117.566 16.8557 118.43 16.8557C118.878 16.8557 119.374 16.9357 119.918 17.0957V23.4317C119.598 23.3677 119.214 23.3197 118.766 23.2877C118.318 23.2237 117.886 23.1917 117.47 23.1917C116.222 23.1917 115.166 23.3997 114.302 23.8157C113.438 24.2317 112.734 24.8077 112.19 25.5437C111.678 26.2477 111.31 27.0797 111.086 28.0397C110.862 28.9997 110.75 30.0397 110.75 31.1597V42.3437H103.934V17.5277Z" fill="#13C216"/>
<path d="M121.822 25.1597C121.918 23.5597 122.318 22.2317 123.022 21.1757C123.726 20.1197 124.622 19.2717 125.71 18.6317C126.798 17.9917 128.014 17.5437 129.358 17.2877C130.734 16.9997 132.11 16.8557 133.486 16.8557C134.734 16.8557 135.998 16.9517 137.278 17.1437C138.558 17.3037 139.726 17.6397 140.782 18.1517C141.838 18.6637 142.702 19.3837 143.374 20.3117C144.046 21.2077 144.382 22.4077 144.382 23.9117V36.8237C144.382 37.9437 144.446 39.0157 144.574 40.0397C144.702 41.0637 144.926 41.8317 145.246 42.3437H138.334C138.206 41.9597 138.094 41.5757 137.998 41.1917C137.934 40.7757 137.886 40.3597 137.854 39.9437C136.766 41.0637 135.486 41.8477 134.014 42.2957C132.542 42.7437 131.038 42.9677 129.502 42.9677C128.318 42.9677 127.214 42.8237 126.19 42.5357C125.166 42.2477 124.27 41.7997 123.502 41.1917C122.734 40.5837 122.126 39.8157 121.678 38.8877C121.262 37.9597 121.054 36.8557 121.054 35.5757C121.054 34.1677 121.294 33.0157 121.774 32.1197C122.286 31.1917 122.926 30.4557 123.694 29.9117C124.494 29.3677 125.39 28.9677 126.382 28.7117C127.406 28.4237 128.43 28.1997 129.454 28.0397C130.478 27.8797 131.486 27.7517 132.478 27.6557C133.47 27.5597 134.35 27.4157 135.118 27.2237C135.886 27.0317 136.494 26.7597 136.942 26.4077C137.39 26.0237 137.598 25.4797 137.566 24.7757C137.566 24.0397 137.438 23.4637 137.182 23.0477C136.958 22.5997 136.638 22.2637 136.222 22.0397C135.838 21.7837 135.374 21.6237 134.83 21.5597C134.318 21.4637 133.758 21.4157 133.15 21.4157C131.806 21.4157 130.75 21.7037 129.982 22.2797C129.214 22.8557 128.766 23.8157 128.638 25.1597H121.822ZM137.566 30.1997C137.278 30.4557 136.91 30.6637 136.462 30.8237C136.046 30.9517 135.582 31.0637 135.07 31.1597C134.59 31.2557 134.078 31.3357 133.534 31.3997C132.99 31.4637 132.446 31.5437 131.902 31.6397C131.39 31.7357 130.878 31.8637 130.366 32.0237C129.886 32.1837 129.454 32.4077 129.07 32.6957C128.718 32.9517 128.43 33.2877 128.206 33.7037C127.982 34.1197 127.87 34.6477 127.87 35.2877C127.87 35.8957 127.982 36.4077 128.206 36.8237C128.43 37.2397 128.734 37.5757 129.118 37.8317C129.502 38.0557 129.95 38.2157 130.462 38.3117C130.974 38.4077 131.502 38.4557 132.046 38.4557C133.39 38.4557 134.43 38.2317 135.166 37.7837C135.902 37.3357 136.446 36.8077 136.798 36.1997C137.15 35.5597 137.358 34.9197 137.422 34.2797C137.518 33.6397 137.566 33.1277 137.566 32.7437V30.1997Z" fill="#13C216"/>
<path d="M166.809 29.8637C166.809 28.8397 166.713 27.8637 166.521 26.9357C166.329 25.9757 165.993 25.1437 165.513 24.4397C165.065 23.7037 164.473 23.1117 163.737 22.6637C163.001 22.2157 162.073 21.9917 160.953 21.9917C159.833 21.9917 158.889 22.2157 158.121 22.6637C157.353 23.1117 156.729 23.7037 156.249 24.4397C155.801 25.1757 155.465 26.0237 155.241 26.9837C155.049 27.9117 154.953 28.8877 154.953 29.9117C154.953 30.8717 155.065 31.8317 155.289 32.7917C155.513 33.7517 155.865 34.6157 156.345 35.3837C156.857 36.1197 157.481 36.7277 158.217 37.2077C158.985 37.6557 159.897 37.8797 160.953 37.8797C162.073 37.8797 163.001 37.6557 163.737 37.2077C164.505 36.7597 165.113 36.1677 165.561 35.4317C166.009 34.6637 166.329 33.7997 166.521 32.8397C166.713 31.8797 166.809 30.8877 166.809 29.8637ZM166.905 39.1757H166.809C166.009 40.5197 164.953 41.4957 163.641 42.1037C162.361 42.6797 160.905 42.9677 159.273 42.9677C157.417 42.9677 155.785 42.6157 154.377 41.9117C152.969 41.1757 151.801 40.1997 150.873 38.9837C149.977 37.7357 149.289 36.3117 148.809 34.7117C148.361 33.1117 148.137 31.4477 148.137 29.7197C148.137 28.0557 148.361 26.4557 148.809 24.9197C149.289 23.3517 149.977 21.9757 150.873 20.7917C151.801 19.6077 152.953 18.6637 154.329 17.9597C155.705 17.2237 157.305 16.8557 159.129 16.8557C160.601 16.8557 161.993 17.1757 163.305 17.8157C164.649 18.4237 165.705 19.3357 166.473 20.5517H166.569V8.07166H173.385V42.3437H166.905V39.1757Z" fill="#13C216"/>
<path d="M194.76 27.2717C194.44 25.5437 193.864 24.2317 193.032 23.3357C192.232 22.4397 191 21.9917 189.336 21.9917C188.248 21.9917 187.336 22.1837 186.6 22.5677C185.896 22.9197 185.32 23.3677 184.872 23.9117C184.456 24.4557 184.152 25.0317 183.96 25.6397C183.8 26.2477 183.704 26.7917 183.672 27.2717H194.76ZM183.672 31.5917C183.768 33.7997 184.328 35.3997 185.352 36.3917C186.376 37.3837 187.848 37.8797 189.768 37.8797C191.144 37.8797 192.328 37.5437 193.32 36.8717C194.312 36.1677 194.92 35.4317 195.144 34.6637H201.144C200.184 37.6397 198.712 39.7677 196.728 41.0477C194.744 42.3277 192.344 42.9677 189.528 42.9677C187.576 42.9677 185.816 42.6637 184.248 42.0557C182.68 41.4157 181.352 40.5197 180.264 39.3677C179.176 38.2157 178.328 36.8397 177.72 35.2397C177.144 33.6397 176.856 31.8797 176.856 29.9597C176.856 28.1037 177.16 26.3757 177.768 24.7757C178.376 23.1757 179.24 21.7997 180.36 20.6477C181.48 19.4637 182.808 18.5357 184.344 17.8637C185.912 17.1917 187.64 16.8557 189.528 16.8557C191.64 16.8557 193.48 17.2717 195.048 18.1037C196.616 18.9037 197.896 19.9917 198.888 21.3677C199.912 22.7437 200.648 24.3117 201.096 26.0717C201.544 27.8317 201.704 29.6717 201.576 31.5917H183.672Z" fill="#13C216"/>
<path d="M241.586 19.5917C241.458 18.7277 241.17 17.9437 240.722 17.2397C240.274 16.5037 239.714 15.8637 239.042 15.3197C238.37 14.7757 237.602 14.3597 236.738 14.0717C235.906 13.7517 235.026 13.5917 234.098 13.5917C232.402 13.5917 230.962 13.9277 229.778 14.5997C228.594 15.2397 227.634 16.1197 226.898 17.2397C226.162 18.3277 225.618 19.5757 225.266 20.9837C224.946 22.3917 224.786 23.8477 224.786 25.3517C224.786 26.7917 224.946 28.1997 225.266 29.5757C225.618 30.9197 226.162 32.1357 226.898 33.2237C227.634 34.3117 228.594 35.1917 229.778 35.8637C230.962 36.5037 232.402 36.8237 234.098 36.8237C236.402 36.8237 238.194 36.1197 239.474 34.7117C240.786 33.3037 241.586 31.4477 241.874 29.1437H249.17C248.978 31.2877 248.482 33.2237 247.682 34.9517C246.882 36.6797 245.826 38.1517 244.514 39.3677C243.202 40.5837 241.666 41.5117 239.906 42.1517C238.146 42.7917 236.21 43.1117 234.098 43.1117C231.474 43.1117 229.106 42.6637 226.994 41.7677C224.914 40.8397 223.154 39.5757 221.714 37.9757C220.274 36.3757 219.17 34.5037 218.402 32.3597C217.634 30.1837 217.25 27.8477 217.25 25.3517C217.25 22.7917 217.634 20.4237 218.402 18.2477C219.17 16.0397 220.274 14.1197 221.714 12.4877C223.154 10.8557 224.914 9.57566 226.994 8.64766C229.106 7.71966 231.474 7.25566 234.098 7.25566C235.986 7.25566 237.762 7.52766 239.426 8.07166C241.122 8.61566 242.626 9.41566 243.938 10.4717C245.282 11.4957 246.386 12.7757 247.25 14.3117C248.114 15.8477 248.658 17.6077 248.882 19.5917H241.586Z" fill="#13C216"/>
<path d="M252.828 25.1597C252.924 23.5597 253.324 22.2317 254.028 21.1757C254.732 20.1197 255.628 19.2717 256.716 18.6317C257.804 17.9917 259.02 17.5437 260.364 17.2877C261.74 16.9997 263.116 16.8557 264.492 16.8557C265.74 16.8557 267.004 16.9517 268.284 17.1437C269.564 17.3037 270.732 17.6397 271.788 18.1517C272.844 18.6637 273.708 19.3837 274.38 20.3117C275.052 21.2077 275.388 22.4077 275.388 23.9117V36.8237C275.388 37.9437 275.452 39.0157 275.58 40.0397C275.708 41.0637 275.932 41.8317 276.252 42.3437H269.34C269.212 41.9597 269.1 41.5757 269.004 41.1917C268.94 40.7757 268.892 40.3597 268.86 39.9437C267.772 41.0637 266.492 41.8477 265.02 42.2957C263.548 42.7437 262.044 42.9677 260.508 42.9677C259.324 42.9677 258.22 42.8237 257.196 42.5357C256.172 42.2477 255.276 41.7997 254.508 41.1917C253.74 40.5837 253.132 39.8157 252.684 38.8877C252.268 37.9597 252.06 36.8557 252.06 35.5757C252.06 34.1677 252.3 33.0157 252.78 32.1197C253.292 31.1917 253.932 30.4557 254.7 29.9117C255.5 29.3677 256.396 28.9677 257.388 28.7117C258.412 28.4237 259.436 28.1997 260.46 28.0397C261.484 27.8797 262.492 27.7517 263.484 27.6557C264.476 27.5597 265.356 27.4157 266.124 27.2237C266.892 27.0317 267.5 26.7597 267.948 26.4077C268.396 26.0237 268.604 25.4797 268.572 24.7757C268.572 24.0397 268.444 23.4637 268.188 23.0477C267.964 22.5997 267.644 22.2637 267.228 22.0397C266.844 21.7837 266.38 21.6237 265.836 21.5597C265.324 21.4637 264.764 21.4157 264.156 21.4157C262.812 21.4157 261.756 21.7037 260.988 22.2797C260.22 22.8557 259.772 23.8157 259.644 25.1597H252.828ZM268.572 30.1997C268.284 30.4557 267.916 30.6637 267.468 30.8237C267.052 30.9517 266.588 31.0637 266.076 31.1597C265.596 31.2557 265.084 31.3357 264.54 31.3997C263.996 31.4637 263.452 31.5437 262.908 31.6397C262.396 31.7357 261.884 31.8637 261.372 32.0237C260.892 32.1837 260.46 32.4077 260.076 32.6957C259.724 32.9517 259.436 33.2877 259.212 33.7037C258.988 34.1197 258.876 34.6477 258.876 35.2877C258.876 35.8957 258.988 36.4077 259.212 36.8237C259.436 37.2397 259.74 37.5757 260.124 37.8317C260.508 38.0557 260.956 38.2157 261.468 38.3117C261.98 38.4077 262.508 38.4557 263.052 38.4557C264.396 38.4557 265.436 38.2317 266.172 37.7837C266.908 37.3357 267.452 36.8077 267.804 36.1997C268.156 35.5597 268.364 34.9197 268.428 34.2797C268.524 33.6397 268.572 33.1277 268.572 32.7437V30.1997Z" fill="#13C216"/>
<path d="M280.391 8.07166H287.207V42.3437H280.391V8.07166Z" fill="#13C216"/>
<path d="M308.99 26.2637C308.542 23.4157 306.862 21.9917 303.95 21.9917C302.862 21.9917 301.95 22.2477 301.214 22.7597C300.478 23.2397 299.87 23.8797 299.39 24.6797C298.942 25.4477 298.622 26.3117 298.43 27.2717C298.238 28.1997 298.142 29.1277 298.142 30.0557C298.142 30.9517 298.238 31.8637 298.43 32.7917C298.622 33.7197 298.926 34.5677 299.342 35.3357C299.79 36.0717 300.382 36.6797 301.118 37.1597C301.854 37.6397 302.75 37.8797 303.806 37.8797C305.438 37.8797 306.686 37.4317 307.55 36.5357C308.446 35.6077 309.006 34.3757 309.23 32.8397H315.806C315.358 36.1357 314.078 38.6477 311.966 40.3757C309.854 42.1037 307.15 42.9677 303.854 42.9677C301.998 42.9677 300.286 42.6637 298.718 42.0557C297.182 41.4157 295.87 40.5357 294.782 39.4157C293.694 38.2957 292.846 36.9677 292.238 35.4317C291.63 33.8637 291.326 32.1517 291.326 30.2957C291.326 28.3757 291.598 26.5997 292.142 24.9677C292.718 23.3037 293.55 21.8797 294.638 20.6957C295.726 19.4797 297.054 18.5357 298.622 17.8637C300.19 17.1917 301.982 16.8557 303.998 16.8557C305.47 16.8557 306.878 17.0477 308.222 17.4317C309.598 17.8157 310.814 18.4077 311.87 19.2077C312.958 19.9757 313.838 20.9517 314.51 22.1357C315.182 23.2877 315.566 24.6637 315.662 26.2637H308.99Z" fill="#13C216"/>
<path d="M342.456 42.3437H335.976V38.8877H335.832C334.968 40.3277 333.848 41.3677 332.472 42.0077C331.096 42.6477 329.688 42.9677 328.248 42.9677C326.424 42.9677 324.92 42.7277 323.736 42.2477C322.584 41.7677 321.672 41.0957 321 40.2317C320.328 39.3357 319.848 38.2637 319.56 37.0157C319.304 35.7357 319.176 34.3277 319.176 32.7917V17.5277H325.992V31.5437C325.992 33.5917 326.312 35.1277 326.952 36.1517C327.592 37.1437 328.728 37.6397 330.36 37.6397C332.216 37.6397 333.56 37.0957 334.392 36.0077C335.224 34.8877 335.64 33.0637 335.64 30.5357V17.5277H342.456V42.3437Z" fill="#13C216"/>
<path d="M347.342 8.07166H354.158V42.3437H347.342V8.07166Z" fill="#13C216"/>
<path d="M358.757 25.1597C358.853 23.5597 359.253 22.2317 359.957 21.1757C360.661 20.1197 361.557 19.2717 362.645 18.6317C363.733 17.9917 364.949 17.5437 366.293 17.2877C367.669 16.9997 369.045 16.8557 370.421 16.8557C371.669 16.8557 372.933 16.9517 374.213 17.1437C375.493 17.3037 376.661 17.6397 377.717 18.1517C378.773 18.6637 379.637 19.3837 380.309 20.3117C380.981 21.2077 381.317 22.4077 381.317 23.9117V36.8237C381.317 37.9437 381.381 39.0157 381.509 40.0397C381.637 41.0637 381.861 41.8317 382.181 42.3437H375.269C375.141 41.9597 375.029 41.5757 374.933 41.1917C374.869 40.7757 374.821 40.3597 374.789 39.9437C373.701 41.0637 372.421 41.8477 370.949 42.2957C369.477 42.7437 367.973 42.9677 366.437 42.9677C365.253 42.9677 364.149 42.8237 363.125 42.5357C362.101 42.2477 361.205 41.7997 360.437 41.1917C359.669 40.5837 359.061 39.8157 358.613 38.8877C358.197 37.9597 357.989 36.8557 357.989 35.5757C357.989 34.1677 358.229 33.0157 358.709 32.1197C359.221 31.1917 359.861 30.4557 360.629 29.9117C361.429 29.3677 362.325 28.9677 363.317 28.7117C364.341 28.4237 365.365 28.1997 366.389 28.0397C367.413 27.8797 368.421 27.7517 369.413 27.6557C370.405 27.5597 371.285 27.4157 372.053 27.2237C372.821 27.0317 373.429 26.7597 373.877 26.4077C374.325 26.0237 374.533 25.4797 374.501 24.7757C374.501 24.0397 374.373 23.4637 374.117 23.0477C373.893 22.5997 373.573 22.2637 373.157 22.0397C372.773 21.7837 372.309 21.6237 371.765 21.5597C371.253 21.4637 370.693 21.4157 370.085 21.4157C368.741 21.4157 367.685 21.7037 366.917 22.2797C366.149 22.8557 365.701 23.8157 365.573 25.1597H358.757ZM374.501 30.1997C374.213 30.4557 373.845 30.6637 373.397 30.8237C372.981 30.9517 372.517 31.0637 372.005 31.1597C371.525 31.2557 371.013 31.3357 370.469 31.3997C369.925 31.4637 369.381 31.5437 368.837 31.6397C368.325 31.7357 367.813 31.8637 367.301 32.0237C366.821 32.1837 366.389 32.4077 366.005 32.6957C365.653 32.9517 365.365 33.2877 365.141 33.7037C364.917 34.1197 364.805 34.6477 364.805 35.2877C364.805 35.8957 364.917 36.4077 365.141 36.8237C365.365 37.2397 365.669 37.5757 366.053 37.8317C366.437 38.0557 366.885 38.2157 367.397 38.3117C367.909 38.4077 368.437 38.4557 368.981 38.4557C370.325 38.4557 371.365 38.2317 372.101 37.7837C372.837 37.3357 373.381 36.8077 373.733 36.1997C374.085 35.5597 374.293 34.9197 374.357 34.2797C374.453 33.6397 374.501 33.1277 374.501 32.7437V30.1997Z" fill="#13C216"/>
<path d="M394.767 17.5277H399.759V22.0877H394.767V34.3757C394.767 35.5277 394.959 36.2957 395.343 36.6797C395.727 37.0637 396.495 37.2557 397.647 37.2557C398.031 37.2557 398.399 37.2397 398.751 37.2077C399.103 37.1757 399.439 37.1277 399.759 37.0637V42.3437C399.183 42.4397 398.543 42.5037 397.839 42.5357C397.135 42.5677 396.447 42.5837 395.775 42.5837C394.719 42.5837 393.711 42.5037 392.751 42.3437C391.823 42.2157 390.991 41.9437 390.255 41.5277C389.551 41.1117 388.991 40.5197 388.575 39.7517C388.159 38.9837 387.951 37.9757 387.951 36.7277V22.0877H383.823V17.5277H387.951V10.0877H394.767V17.5277Z" fill="#13C216"/>
<path d="M408.57 29.9597C408.57 30.9517 408.666 31.9277 408.858 32.8877C409.05 33.8157 409.37 34.6637 409.818 35.4317C410.298 36.1677 410.922 36.7597 411.69 37.2077C412.458 37.6557 413.418 37.8797 414.57 37.8797C415.722 37.8797 416.682 37.6557 417.45 37.2077C418.25 36.7597 418.874 36.1677 419.322 35.4317C419.802 34.6637 420.138 33.8157 420.33 32.8877C420.522 31.9277 420.618 30.9517 420.618 29.9597C420.618 28.9677 420.522 27.9917 420.33 27.0317C420.138 26.0717 419.802 25.2237 419.322 24.4877C418.874 23.7517 418.25 23.1597 417.45 22.7117C416.682 22.2317 415.722 21.9917 414.57 21.9917C413.418 21.9917 412.458 22.2317 411.69 22.7117C410.922 23.1597 410.298 23.7517 409.818 24.4877C409.37 25.2237 409.05 26.0717 408.858 27.0317C408.666 27.9917 408.57 28.9677 408.57 29.9597ZM401.754 29.9597C401.754 27.9757 402.058 26.1837 402.666 24.5837C403.274 22.9517 404.138 21.5757 405.258 20.4557C406.378 19.3037 407.722 18.4237 409.29 17.8157C410.858 17.1757 412.618 16.8557 414.57 16.8557C416.522 16.8557 418.282 17.1757 419.85 17.8157C421.45 18.4237 422.81 19.3037 423.93 20.4557C425.05 21.5757 425.914 22.9517 426.522 24.5837C427.13 26.1837 427.434 27.9757 427.434 29.9597C427.434 31.9437 427.13 33.7357 426.522 35.3357C425.914 36.9357 425.05 38.3117 423.93 39.4637C422.81 40.5837 421.45 41.4477 419.85 42.0557C418.282 42.6637 416.522 42.9677 414.57 42.9677C412.618 42.9677 410.858 42.6637 409.29 42.0557C407.722 41.4477 406.378 40.5837 405.258 39.4637C404.138 38.3117 403.274 36.9357 402.666 35.3357C402.058 33.7357 401.754 31.9437 401.754 29.9597Z" fill="#13C216"/>
<path d="M431.386 17.5277H437.866V22.1357H437.962C438.282 21.3677 438.714 20.6637 439.258 20.0237C439.802 19.3517 440.426 18.7917 441.13 18.3437C441.834 17.8637 442.586 17.4957 443.386 17.2397C444.186 16.9837 445.018 16.8557 445.882 16.8557C446.33 16.8557 446.826 16.9357 447.37 17.0957V23.4317C447.05 23.3677 446.666 23.3197 446.218 23.2877C445.77 23.2237 445.338 23.1917 444.922 23.1917C443.674 23.1917 442.618 23.3997 441.754 23.8157C440.89 24.2317 440.186 24.8077 439.642 25.5437C439.13 26.2477 438.762 27.0797 438.538 28.0397C438.314 28.9997 438.202 30.0397 438.202 31.1597V42.3437H431.386V17.5277Z" fill="#13C216"/>
<path d="M33.8261 5.24416C35.2416 5.74292 36.4674 6.66867 37.3344 7.89367C38.2014 9.11867 38.6669 10.5825 38.6667 12.0833V41.0833C38.6667 43.0062 37.9028 44.8502 36.5432 46.2099C35.1836 47.5695 33.3395 48.3333 31.4167 48.3333H7.25C5.32718 48.3333 3.48311 47.5695 2.12348 46.2099C0.763837 44.8502 1.06467e-07 43.0062 1.06467e-07 41.0833V12.0833C-0.000257022 10.5825 0.465238 9.11867 1.33226 7.89367C2.19928 6.66867 3.4251 5.74292 4.84058 5.24416C4.94653 7.7348 6.01058 10.0882 7.81052 11.813C9.61045 13.5377 12.0071 14.5004 14.5 14.5H24.1667C26.562 14.5002 28.872 13.6111 30.6491 12.0051C32.4262 10.399 33.5437 8.19035 33.785 5.80724L33.8261 5.24416ZM24.8748 22.4581L16.9167 30.4137L13.7919 27.2914C13.569 27.0606 13.3023 26.8765 13.0075 26.7498C12.7126 26.6232 12.3955 26.5565 12.0746 26.5537C11.7538 26.5509 11.4355 26.6121 11.1385 26.7336C10.8415 26.8551 10.5717 27.0346 10.3448 27.2615C10.1179 27.4884 9.93844 27.7582 9.81693 28.0552C9.69542 28.3522 9.63427 28.6704 9.63706 28.9913C9.63985 29.3122 9.70652 29.6293 9.83317 29.9241C9.95983 30.219 10.1439 30.4857 10.3748 30.7086L15.2081 35.5419C15.6613 35.995 16.2759 36.2495 16.9167 36.2495C17.5575 36.2495 18.1721 35.995 18.6253 35.5419L28.2919 25.8752C28.7321 25.4195 28.9757 24.809 28.9702 24.1754C28.9647 23.5417 28.7105 22.9356 28.2625 22.4875C27.8144 22.0394 27.2083 21.7853 26.5746 21.7798C25.941 21.7743 25.3305 22.0179 24.8748 22.4581ZM24.1667 0C25.4485 0 26.6779 0.509224 27.5843 1.41565C28.4908 2.32208 29 3.55145 29 4.83333C29 6.11521 28.4908 7.34459 27.5843 8.25101C26.6779 9.15744 25.4485 9.66666 24.1667 9.66666H14.5C13.2181 9.66666 11.9887 9.15744 11.0823 8.25101C10.1759 7.34459 9.66667 6.11521 9.66667 4.83333C9.66667 3.55145 10.1759 2.32208 11.0823 1.41565C11.9887 0.509224 13.2181 0 14.5 0H24.1667Z" fill="#13C216"/>
</svg>
