<svg width="432" height="48" viewBox="0 0 432 48" fill="none" xmlns="http://www.w3.org/2000/svg">
<path d="M54.8989 40.4267L53.4586 26.139C53.4033 25.5904 52.8548 25.2337 52.3309 25.4056L35.5231 30.9206C34.6388 31.2108 33.6844 31.2073 32.8023 30.9106L16.467 25.4171C15.9406 25.24 15.3865 25.5991 15.333 26.1519L13.945 40.4945C13.8769 41.1977 14.0877 41.9087 14.607 42.3877C22.1688 49.3634 45.2337 50.3518 54.1749 42.4147C54.7332 41.9191 54.9738 41.1694 54.8989 40.4267Z" fill="#2463EB"/>
<path d="M35.0123 0.152632L66.7573 11.564C69.054 12.3896 69.0374 15.6434 66.7325 16.4456L34.9873 27.4936C34.4328 27.6865 33.8293 27.6853 33.2756 27.4902L16.1459 21.4525C15.4954 21.2232 15.3744 20.3777 15.965 20.0215C19.13 18.1127 24.6837 15.8595 34.0958 12.1838C35.0929 11.7944 35.4712 10.5768 34.8659 9.69398C34.4341 9.06421 33.6284 8.80991 32.9131 9.07706C22.8944 12.8188 16.0359 15.3457 12.8389 17.7582C12.6561 17.8962 12.495 18.0618 12.3559 18.2438C8.32176 23.5193 7.09109 28.3896 9.82522 35.111C10.682 37.8582 11.2916 39.1495 10.2546 46.6518C10.2297 46.884 10.1138 47.1068 9.9141 47.228C6.90203 49.056 -0.0926033 46.7576 0.00092886 44.5069C0.00595799 44.3859 0.0604352 44.277 0.134577 44.1814L0.138423 44.1764C0.17055 44.135 0.202968 44.0932 0.230321 44.0486C3.09555 39.3691 5.64937 35.8505 5.12451 32.5596C4.59704 29.2523 5.61908 20.4599 8.0168 18.3682L1.93114 16.4422C-0.360829 15.6344 -0.377447 12.399 1.9061 11.5676L33.2508 0.15621C33.8195 -0.0508334 34.4427 -0.0520996 35.0123 0.152632Z" fill="#2463EB"/>
<path d="M110.395 19.425C110.267 18.561 109.979 17.777 109.531 17.073C109.083 16.337 108.523 15.697 107.851 15.153C107.179 14.609 106.411 14.193 105.547 13.905C104.715 13.585 103.835 13.425 102.907 13.425C101.211 13.425 99.7713 13.761 98.5873 14.433C97.4033 15.073 96.4433 15.953 95.7073 17.073C94.9713 18.161 94.4273 19.409 94.0753 20.817C93.7553 22.225 93.5953 23.681 93.5953 25.185C93.5953 26.625 93.7553 28.033 94.0753 29.409C94.4273 30.753 94.9713 31.969 95.7073 33.057C96.4433 34.145 97.4033 35.025 98.5873 35.697C99.7713 36.337 101.211 36.657 102.907 36.657C105.211 36.657 107.003 35.953 108.283 34.545C109.595 33.137 110.395 31.281 110.683 28.977H117.979C117.787 31.121 117.291 33.057 116.491 34.785C115.691 36.513 114.635 37.985 113.323 39.201C112.011 40.417 110.475 41.345 108.715 41.985C106.955 42.625 105.019 42.945 102.907 42.945C100.283 42.945 97.9153 42.497 95.8033 41.601C93.7233 40.673 91.9633 39.409 90.5233 37.809C89.0833 36.209 87.9793 34.337 87.2113 32.193C86.4433 30.017 86.0593 27.681 86.0593 25.185C86.0593 22.625 86.4433 20.257 87.2113 18.081C87.9793 15.873 89.0833 13.953 90.5233 12.321C91.9633 10.689 93.7233 9.40899 95.8033 8.48099C97.9153 7.55299 100.283 7.08899 102.907 7.08899C104.795 7.08899 106.571 7.36099 108.235 7.90499C109.931 8.44899 111.435 9.24899 112.747 10.305C114.091 11.329 115.195 12.609 116.059 14.145C116.923 15.681 117.467 17.441 117.691 19.425H110.395Z" fill="#2463EB"/>
<path d="M127.973 29.793C127.973 30.785 128.069 31.761 128.261 32.721C128.453 33.649 128.773 34.497 129.221 35.265C129.701 36.001 130.325 36.593 131.093 37.041C131.861 37.489 132.821 37.713 133.973 37.713C135.125 37.713 136.085 37.489 136.853 37.041C137.653 36.593 138.277 36.001 138.725 35.265C139.205 34.497 139.541 33.649 139.733 32.721C139.925 31.761 140.021 30.785 140.021 29.793C140.021 28.801 139.925 27.825 139.733 26.865C139.541 25.905 139.205 25.057 138.725 24.321C138.277 23.585 137.653 22.993 136.853 22.545C136.085 22.065 135.125 21.825 133.973 21.825C132.821 21.825 131.861 22.065 131.093 22.545C130.325 22.993 129.701 23.585 129.221 24.321C128.773 25.057 128.453 25.905 128.261 26.865C128.069 27.825 127.973 28.801 127.973 29.793ZM121.157 29.793C121.157 27.809 121.461 26.017 122.069 24.417C122.677 22.785 123.541 21.409 124.661 20.289C125.781 19.137 127.125 18.257 128.693 17.649C130.261 17.009 132.021 16.689 133.973 16.689C135.925 16.689 137.685 17.009 139.253 17.649C140.853 18.257 142.213 19.137 143.333 20.289C144.453 21.409 145.317 22.785 145.925 24.417C146.533 26.017 146.837 27.809 146.837 29.793C146.837 31.777 146.533 33.569 145.925 35.169C145.317 36.769 144.453 38.145 143.333 39.297C142.213 40.417 140.853 41.281 139.253 41.889C137.685 42.497 135.925 42.801 133.973 42.801C132.021 42.801 130.261 42.497 128.693 41.889C127.125 41.281 125.781 40.417 124.661 39.297C123.541 38.145 122.677 36.769 122.069 35.169C121.461 33.569 121.157 31.777 121.157 29.793Z" fill="#2463EB"/>
<path d="M174.069 42.177H167.589V38.721H167.445C166.581 40.161 165.461 41.201 164.085 41.841C162.709 42.481 161.301 42.801 159.861 42.801C158.037 42.801 156.533 42.561 155.349 42.081C154.197 41.601 153.285 40.929 152.613 40.065C151.941 39.169 151.461 38.097 151.173 36.849C150.917 35.569 150.789 34.161 150.789 32.625V17.361H157.605V31.377C157.605 33.425 157.925 34.961 158.565 35.985C159.205 36.977 160.341 37.473 161.973 37.473C163.829 37.473 165.173 36.929 166.005 35.841C166.837 34.721 167.253 32.897 167.253 30.369V17.361H174.069V42.177Z" fill="#2463EB"/>
<path d="M178.762 17.361H185.242V21.969H185.338C185.658 21.201 186.09 20.497 186.634 19.857C187.178 19.185 187.802 18.625 188.506 18.177C189.21 17.697 189.962 17.329 190.762 17.073C191.562 16.817 192.394 16.689 193.258 16.689C193.706 16.689 194.202 16.769 194.746 16.929V23.265C194.426 23.201 194.042 23.153 193.594 23.121C193.146 23.057 192.714 23.025 192.298 23.025C191.05 23.025 189.994 23.233 189.13 23.649C188.266 24.065 187.562 24.641 187.018 25.377C186.506 26.081 186.138 26.913 185.914 27.873C185.69 28.833 185.578 29.873 185.578 30.993V42.177H178.762V17.361Z" fill="#2463EB"/>
<path d="M202.219 34.113C202.219 34.849 202.363 35.489 202.651 36.033C202.971 36.545 203.371 36.977 203.851 37.329C204.331 37.649 204.875 37.889 205.483 38.049C206.123 38.209 206.779 38.289 207.451 38.289C207.931 38.289 208.427 38.241 208.939 38.145C209.483 38.017 209.963 37.841 210.379 37.617C210.827 37.361 211.195 37.041 211.483 36.657C211.771 36.241 211.915 35.729 211.915 35.121C211.915 34.097 211.227 33.329 209.851 32.817C208.507 32.305 206.619 31.793 204.187 31.281C203.195 31.057 202.219 30.801 201.259 30.513C200.331 30.193 199.499 29.793 198.763 29.313C198.027 28.801 197.435 28.177 196.987 27.441C196.539 26.673 196.315 25.745 196.315 24.657C196.315 23.057 196.619 21.745 197.227 20.721C197.867 19.697 198.699 18.897 199.723 18.321C200.747 17.713 201.899 17.297 203.179 17.073C204.459 16.817 205.771 16.689 207.115 16.689C208.459 16.689 209.755 16.817 211.003 17.073C212.283 17.329 213.419 17.761 214.411 18.369C215.403 18.977 216.219 19.793 216.859 20.817C217.531 21.809 217.931 23.073 218.059 24.609H211.579C211.483 23.297 210.987 22.417 210.091 21.969C209.195 21.489 208.139 21.249 206.923 21.249C206.539 21.249 206.123 21.281 205.675 21.345C205.227 21.377 204.811 21.473 204.427 21.633C204.075 21.793 203.771 22.033 203.515 22.353C203.259 22.641 203.131 23.041 203.131 23.553C203.131 24.161 203.355 24.657 203.803 25.041C204.251 25.425 204.827 25.745 205.531 26.001C206.267 26.225 207.099 26.433 208.027 26.625C208.955 26.817 209.899 27.025 210.859 27.249C211.851 27.473 212.811 27.745 213.739 28.065C214.699 28.385 215.547 28.817 216.283 29.361C217.019 29.873 217.611 30.529 218.059 31.329C218.507 32.097 218.731 33.057 218.731 34.209C218.731 35.841 218.395 37.217 217.723 38.337C217.083 39.425 216.235 40.305 215.179 40.977C214.123 41.649 212.907 42.113 211.531 42.369C210.187 42.657 208.811 42.801 207.403 42.801C205.963 42.801 204.555 42.657 203.179 42.369C201.803 42.081 200.571 41.601 199.483 40.929C198.427 40.257 197.547 39.377 196.843 38.289C196.171 37.169 195.803 35.777 195.739 34.113H202.219Z" fill="#2463EB"/>
<path d="M238.944 27.105C238.624 25.377 238.048 24.065 237.216 23.169C236.416 22.273 235.184 21.825 233.52 21.825C232.432 21.825 231.52 22.017 230.784 22.401C230.08 22.753 229.504 23.201 229.056 23.745C228.64 24.289 228.336 24.865 228.144 25.473C227.984 26.081 227.888 26.625 227.856 27.105H238.944ZM227.856 31.425C227.952 33.633 228.512 35.233 229.536 36.225C230.56 37.217 232.032 37.713 233.952 37.713C235.328 37.713 236.512 37.377 237.504 36.705C238.496 36.001 239.104 35.265 239.328 34.497H245.328C244.368 37.473 242.896 39.601 240.912 40.881C238.928 42.161 236.528 42.801 233.712 42.801C231.76 42.801 230 42.497 228.432 41.889C226.864 41.249 225.536 40.353 224.448 39.201C223.36 38.049 222.512 36.673 221.904 35.073C221.328 33.473 221.04 31.713 221.04 29.793C221.04 27.937 221.344 26.209 221.952 24.609C222.56 23.009 223.424 21.633 224.544 20.481C225.664 19.297 226.992 18.369 228.528 17.697C230.096 17.025 231.824 16.689 233.712 16.689C235.824 16.689 237.664 17.105 239.232 17.937C240.8 18.737 242.08 19.825 243.072 21.201C244.096 22.577 244.832 24.145 245.28 25.905C245.728 27.665 245.888 29.505 245.76 31.425H227.856Z" fill="#2463EB"/>
<path d="M270.458 24.033H276.314C277.178 24.033 278.01 23.969 278.81 23.841C279.61 23.713 280.314 23.473 280.922 23.121C281.53 22.737 282.01 22.209 282.362 21.537C282.746 20.865 282.938 19.985 282.938 18.897C282.938 17.809 282.746 16.929 282.362 16.257C282.01 15.585 281.53 15.073 280.922 14.721C280.314 14.337 279.61 14.081 278.81 13.953C278.01 13.825 277.178 13.761 276.314 13.761H270.458V24.033ZM262.922 7.90499H278.378C280.522 7.90499 282.346 8.22499 283.85 8.86499C285.354 9.47299 286.57 10.289 287.498 11.313C288.458 12.337 289.146 13.505 289.562 14.817C290.01 16.129 290.234 17.489 290.234 18.897C290.234 20.273 290.01 21.633 289.562 22.977C289.146 24.289 288.458 25.457 287.498 26.481C286.57 27.505 285.354 28.337 283.85 28.977C282.346 29.585 280.522 29.889 278.378 29.889H270.458V42.177H262.922V7.90499Z" fill="#2463EB"/>
<path d="M293.929 7.90499H300.745V42.177H293.929V7.90499Z" fill="#2463EB"/>
<path d="M305.344 24.993C305.44 23.393 305.84 22.065 306.544 21.009C307.248 19.953 308.144 19.105 309.232 18.465C310.32 17.825 311.536 17.377 312.88 17.121C314.256 16.833 315.632 16.689 317.008 16.689C318.256 16.689 319.52 16.785 320.8 16.977C322.08 17.137 323.248 17.473 324.304 17.985C325.36 18.497 326.224 19.217 326.896 20.145C327.568 21.041 327.904 22.241 327.904 23.745V36.657C327.904 37.777 327.968 38.849 328.096 39.873C328.224 40.897 328.448 41.665 328.768 42.177H321.856C321.728 41.793 321.616 41.409 321.52 41.025C321.456 40.609 321.408 40.193 321.376 39.777C320.288 40.897 319.008 41.681 317.536 42.129C316.064 42.577 314.56 42.801 313.024 42.801C311.84 42.801 310.736 42.657 309.712 42.369C308.688 42.081 307.792 41.633 307.024 41.025C306.256 40.417 305.648 39.649 305.2 38.721C304.784 37.793 304.576 36.689 304.576 35.409C304.576 34.001 304.816 32.849 305.296 31.953C305.808 31.025 306.448 30.289 307.216 29.745C308.016 29.201 308.912 28.801 309.904 28.545C310.928 28.257 311.952 28.033 312.976 27.873C314 27.713 315.008 27.585 316 27.489C316.992 27.393 317.872 27.249 318.64 27.057C319.408 26.865 320.016 26.593 320.464 26.241C320.912 25.857 321.12 25.313 321.088 24.609C321.088 23.873 320.96 23.297 320.704 22.881C320.48 22.433 320.16 22.097 319.744 21.873C319.36 21.617 318.896 21.457 318.352 21.393C317.84 21.297 317.28 21.249 316.672 21.249C315.328 21.249 314.272 21.537 313.504 22.113C312.736 22.689 312.288 23.649 312.16 24.993H305.344ZM321.088 30.033C320.8 30.289 320.432 30.497 319.984 30.657C319.568 30.785 319.104 30.897 318.592 30.993C318.112 31.089 317.6 31.169 317.056 31.233C316.512 31.297 315.968 31.377 315.424 31.473C314.912 31.569 314.4 31.697 313.888 31.857C313.408 32.017 312.976 32.241 312.592 32.529C312.24 32.785 311.952 33.121 311.728 33.537C311.504 33.953 311.392 34.481 311.392 35.121C311.392 35.729 311.504 36.241 311.728 36.657C311.952 37.073 312.256 37.409 312.64 37.665C313.024 37.889 313.472 38.049 313.984 38.145C314.496 38.241 315.024 38.289 315.568 38.289C316.912 38.289 317.952 38.065 318.688 37.617C319.424 37.169 319.968 36.641 320.32 36.033C320.672 35.393 320.88 34.753 320.944 34.113C321.04 33.473 321.088 32.961 321.088 32.577V30.033Z" fill="#2463EB"/>
<path d="M332.715 17.361H339.195V20.817H339.339C340.203 19.377 341.323 18.337 342.699 17.697C344.075 17.025 345.483 16.689 346.923 16.689C348.747 16.689 350.235 16.945 351.387 17.457C352.571 17.937 353.499 18.625 354.171 19.521C354.843 20.385 355.307 21.457 355.563 22.737C355.851 23.985 355.995 25.377 355.995 26.913V42.177H349.179V28.161C349.179 26.113 348.859 24.593 348.219 23.601C347.579 22.577 346.443 22.065 344.811 22.065C342.955 22.065 341.611 22.625 340.779 23.745C339.947 24.833 339.531 26.641 339.531 29.169V42.177H332.715V17.361Z" fill="#2463EB"/>
<path d="M360.688 17.361H367.168V20.817H367.312C368.176 19.377 369.296 18.337 370.672 17.697C372.048 17.025 373.456 16.689 374.896 16.689C376.72 16.689 378.208 16.945 379.36 17.457C380.544 17.937 381.472 18.625 382.144 19.521C382.816 20.385 383.28 21.457 383.536 22.737C383.824 23.985 383.968 25.377 383.968 26.913V42.177H377.152V28.161C377.152 26.113 376.832 24.593 376.192 23.601C375.552 22.577 374.416 22.065 372.784 22.065C370.928 22.065 369.584 22.625 368.752 23.745C367.92 24.833 367.504 26.641 367.504 29.169V42.177H360.688V17.361Z" fill="#2463EB"/>
<path d="M405.365 27.105C405.045 25.377 404.469 24.065 403.637 23.169C402.837 22.273 401.605 21.825 399.941 21.825C398.853 21.825 397.941 22.017 397.205 22.401C396.501 22.753 395.925 23.201 395.477 23.745C395.061 24.289 394.757 24.865 394.565 25.473C394.405 26.081 394.309 26.625 394.277 27.105H405.365ZM394.277 31.425C394.373 33.633 394.933 35.233 395.957 36.225C396.981 37.217 398.453 37.713 400.373 37.713C401.749 37.713 402.933 37.377 403.925 36.705C404.917 36.001 405.525 35.265 405.749 34.497H411.749C410.789 37.473 409.317 39.601 407.333 40.881C405.349 42.161 402.949 42.801 400.133 42.801C398.181 42.801 396.421 42.497 394.853 41.889C393.285 41.249 391.957 40.353 390.869 39.201C389.781 38.049 388.933 36.673 388.325 35.073C387.749 33.473 387.461 31.713 387.461 29.793C387.461 27.937 387.765 26.209 388.373 24.609C388.981 23.009 389.845 21.633 390.965 20.481C392.085 19.297 393.413 18.369 394.949 17.697C396.517 17.025 398.245 16.689 400.133 16.689C402.245 16.689 404.085 17.105 405.653 17.937C407.221 18.737 408.501 19.825 409.493 21.201C410.517 22.577 411.253 24.145 411.701 25.905C412.149 27.665 412.309 29.505 412.181 31.425H394.277Z" fill="#2463EB"/>
<path d="M415.744 17.361H422.224V21.969H422.32C422.64 21.201 423.072 20.497 423.616 19.857C424.16 19.185 424.784 18.625 425.488 18.177C426.192 17.697 426.944 17.329 427.744 17.073C428.544 16.817 429.376 16.689 430.24 16.689C430.688 16.689 431.184 16.769 431.728 16.929V23.265C431.408 23.201 431.024 23.153 430.576 23.121C430.128 23.057 429.696 23.025 429.28 23.025C428.032 23.025 426.976 23.233 426.112 23.649C425.248 24.065 424.544 24.641 424 25.377C423.488 26.081 423.12 26.913 422.896 27.873C422.672 28.833 422.56 29.873 422.56 30.993V42.177H415.744V17.361Z" fill="#2463EB"/>
</svg>
