<svg width="397" height="49" viewBox="0 0 397 49" fill="none" xmlns="http://www.w3.org/2000/svg">
<path d="M33.8261 5.24417C35.2416 5.74293 36.4674 6.66867 37.3344 7.89367C38.2014 9.11867 38.6669 10.5825 38.6667 12.0833V41.0833C38.6667 43.0062 37.9028 44.8502 36.5432 46.2099C35.1836 47.5695 33.3395 48.3333 31.4167 48.3333H7.25C5.32718 48.3333 3.48311 47.5695 2.12348 46.2099C0.763836 44.8502 -9.53674e-07 43.0062 -9.53674e-07 41.0833V12.0833C-0.000258082 10.5825 0.465237 9.11867 1.33226 7.89367C2.19928 6.66867 3.4251 5.74293 4.84058 5.24417C4.94653 7.7348 6.01058 10.0882 7.81051 11.813C9.61045 13.5377 12.0071 14.5004 14.5 14.5H24.1667C26.562 14.5002 28.872 13.6111 30.6491 12.0051C32.4262 10.399 33.5437 8.19035 33.785 5.80725L33.8261 5.24417ZM24.8748 22.4581L16.9167 30.4138L13.7919 27.2914C13.569 27.0606 13.3023 26.8765 13.0075 26.7498C12.7126 26.6232 12.3955 26.5565 12.0746 26.5537C11.7538 26.5509 11.4355 26.6121 11.1385 26.7336C10.8415 26.8551 10.5717 27.0346 10.3448 27.2615C10.1179 27.4884 9.93844 27.7582 9.81693 28.0552C9.69542 28.3522 9.63427 28.6704 9.63706 28.9913C9.63985 29.3122 9.70651 29.6293 9.83317 29.9241C9.95983 30.219 10.1439 30.4857 10.3748 30.7086L15.2081 35.5419C15.6613 35.995 16.2759 36.2495 16.9167 36.2495C17.5575 36.2495 18.1721 35.995 18.6252 35.5419L28.2919 25.8752C28.7321 25.4195 28.9757 24.809 28.9702 24.1754C28.9647 23.5417 28.7105 22.9356 28.2625 22.4875C27.8144 22.0395 27.2083 21.7853 26.5746 21.7798C25.941 21.7743 25.3305 22.0179 24.8748 22.4581ZM24.1667 -4.76837e-07C25.4485 -4.76837e-07 26.6779 0.509224 27.5843 1.41565C28.4908 2.32208 29 3.55145 29 4.83333C29 6.11521 28.4908 7.34459 27.5843 8.25102C26.6779 9.15744 25.4485 9.66667 24.1667 9.66667H14.5C13.2181 9.66667 11.9887 9.15744 11.0823 8.25102C10.1759 7.34459 9.66667 6.11521 9.66667 4.83333C9.66667 3.55145 10.1759 2.32208 11.0823 1.41565C11.9887 0.509224 13.2181 -4.76837e-07 14.5 -4.76837e-07H24.1667Z" fill="#2FD62F"/>
<path d="M83.4133 38.4557C82.0693 40.1837 80.5813 41.3997 78.9493 42.1037C77.3173 42.7757 75.6693 43.1117 74.0053 43.1117C71.3813 43.1117 69.0133 42.6637 66.9013 41.7677C64.8213 40.8397 63.0613 39.5757 61.6213 37.9757C60.1813 36.3757 59.0773 34.5037 58.3093 32.3597C57.5413 30.1837 57.1573 27.8477 57.1573 25.3517C57.1573 22.7917 57.5413 20.4237 58.3093 18.2477C59.0773 16.0397 60.1813 14.1197 61.6213 12.4877C63.0613 10.8557 64.8213 9.57566 66.9013 8.64766C69.0133 7.71966 71.3813 7.25566 74.0053 7.25566C75.7653 7.25566 77.4613 7.52766 79.0933 8.07166C80.7573 8.58366 82.2453 9.35166 83.5573 10.3757C84.9013 11.3997 86.0053 12.6637 86.8693 14.1677C87.7333 15.6717 88.2613 17.3997 88.4533 19.3517H81.2533C80.8053 17.4317 79.9413 15.9917 78.6613 15.0317C77.3813 14.0717 75.8293 13.5917 74.0053 13.5917C72.3093 13.5917 70.8693 13.9277 69.6853 14.5997C68.5013 15.2397 67.5413 16.1197 66.8053 17.2397C66.0693 18.3277 65.5253 19.5757 65.1733 20.9837C64.8533 22.3917 64.6933 23.8477 64.6933 25.3517C64.6933 26.7917 64.8533 28.1997 65.1733 29.5757C65.5253 30.9197 66.0693 32.1357 66.8053 33.2237C67.5413 34.3117 68.5013 35.1917 69.6853 35.8637C70.8693 36.5037 72.3093 36.8237 74.0053 36.8237C76.5013 36.8237 78.4213 36.1997 79.7653 34.9517C81.1413 33.6717 81.9413 31.8317 82.1653 29.4317H74.5813V23.8157H88.9813V42.3437H84.1813L83.4133 38.4557Z" fill="#2FD62F"/>
<path d="M102.123 24.1997H107.979C108.843 24.1997 109.675 24.1357 110.475 24.0077C111.275 23.8797 111.979 23.6397 112.587 23.2877C113.195 22.9037 113.675 22.3757 114.027 21.7037C114.411 21.0317 114.603 20.1517 114.603 19.0637C114.603 17.9757 114.411 17.0957 114.027 16.4237C113.675 15.7517 113.195 15.2397 112.587 14.8877C111.979 14.5037 111.275 14.2477 110.475 14.1197C109.675 13.9917 108.843 13.9277 107.979 13.9277H102.123V24.1997ZM94.5872 8.07166H110.043C112.187 8.07166 114.011 8.39166 115.515 9.03166C117.019 9.63966 118.235 10.4557 119.163 11.4797C120.123 12.5037 120.811 13.6717 121.227 14.9837C121.675 16.2957 121.899 17.6557 121.899 19.0637C121.899 20.4397 121.675 21.7997 121.227 23.1437C120.811 24.4557 120.123 25.6237 119.163 26.6477C118.235 27.6717 117.019 28.5037 115.515 29.1437C114.011 29.7517 112.187 30.0557 110.043 30.0557H102.123V42.3437H94.5872V8.07166Z" fill="#2FD62F"/>
<path d="M131.2 29.0957H140.08L135.76 16.5197H135.664L131.2 29.0957ZM131.92 8.07166H139.648L152.464 42.3437H144.64L142.048 34.7117H129.232L126.544 42.3437H118.96L131.92 8.07166Z" fill="#2FD62F"/>
<path d="M190.667 19.5917C190.539 18.7277 190.251 17.9437 189.803 17.2397C189.355 16.5037 188.795 15.8637 188.123 15.3197C187.451 14.7757 186.683 14.3597 185.819 14.0717C184.987 13.7517 184.107 13.5917 183.179 13.5917C181.483 13.5917 180.043 13.9277 178.859 14.5997C177.675 15.2397 176.715 16.1197 175.979 17.2397C175.243 18.3277 174.699 19.5757 174.347 20.9837C174.027 22.3917 173.867 23.8477 173.867 25.3517C173.867 26.7917 174.027 28.1997 174.347 29.5757C174.699 30.9197 175.243 32.1357 175.979 33.2237C176.715 34.3117 177.675 35.1917 178.859 35.8637C180.043 36.5037 181.483 36.8237 183.179 36.8237C185.483 36.8237 187.275 36.1197 188.555 34.7117C189.867 33.3037 190.667 31.4477 190.955 29.1437H198.251C198.059 31.2877 197.563 33.2237 196.763 34.9517C195.963 36.6797 194.907 38.1517 193.595 39.3677C192.283 40.5837 190.747 41.5117 188.987 42.1517C187.227 42.7917 185.291 43.1117 183.179 43.1117C180.555 43.1117 178.187 42.6637 176.075 41.7677C173.995 40.8397 172.235 39.5757 170.795 37.9757C169.355 36.3757 168.251 34.5037 167.483 32.3597C166.715 30.1837 166.331 27.8477 166.331 25.3517C166.331 22.7917 166.715 20.4237 167.483 18.2477C168.251 16.0397 169.355 14.1197 170.795 12.4877C172.235 10.8557 173.995 9.57566 176.075 8.64766C178.187 7.71966 180.555 7.25566 183.179 7.25566C185.067 7.25566 186.843 7.52766 188.507 8.07166C190.203 8.61566 191.707 9.41566 193.019 10.4717C194.363 11.4957 195.467 12.7757 196.331 14.3117C197.195 15.8477 197.739 17.6077 197.963 19.5917H190.667Z" fill="#2FD62F"/>
<path d="M201.909 25.1597C202.005 23.5597 202.405 22.2317 203.109 21.1757C203.813 20.1197 204.709 19.2717 205.797 18.6317C206.885 17.9917 208.101 17.5437 209.445 17.2877C210.821 16.9997 212.197 16.8557 213.573 16.8557C214.821 16.8557 216.085 16.9517 217.365 17.1437C218.645 17.3037 219.813 17.6397 220.869 18.1517C221.925 18.6637 222.789 19.3837 223.461 20.3117C224.133 21.2077 224.469 22.4077 224.469 23.9117V36.8237C224.469 37.9437 224.533 39.0157 224.661 40.0397C224.789 41.0637 225.013 41.8317 225.333 42.3437H218.421C218.293 41.9597 218.181 41.5757 218.085 41.1917C218.021 40.7757 217.973 40.3597 217.941 39.9437C216.853 41.0637 215.573 41.8477 214.101 42.2957C212.629 42.7437 211.125 42.9677 209.589 42.9677C208.405 42.9677 207.301 42.8237 206.277 42.5357C205.253 42.2477 204.357 41.7997 203.589 41.1917C202.821 40.5837 202.213 39.8157 201.765 38.8877C201.349 37.9597 201.141 36.8557 201.141 35.5757C201.141 34.1677 201.381 33.0157 201.861 32.1197C202.373 31.1917 203.013 30.4557 203.781 29.9117C204.581 29.3677 205.477 28.9677 206.469 28.7117C207.493 28.4237 208.517 28.1997 209.541 28.0397C210.565 27.8797 211.573 27.7517 212.565 27.6557C213.557 27.5597 214.437 27.4157 215.205 27.2237C215.973 27.0317 216.581 26.7597 217.029 26.4077C217.477 26.0237 217.685 25.4797 217.653 24.7757C217.653 24.0397 217.525 23.4637 217.269 23.0477C217.045 22.5997 216.725 22.2637 216.309 22.0397C215.925 21.7837 215.461 21.6237 214.917 21.5597C214.405 21.4637 213.845 21.4157 213.237 21.4157C211.893 21.4157 210.837 21.7037 210.069 22.2797C209.301 22.8557 208.853 23.8157 208.725 25.1597H201.909ZM217.653 30.1997C217.365 30.4557 216.997 30.6637 216.549 30.8237C216.133 30.9517 215.669 31.0637 215.157 31.1597C214.677 31.2557 214.165 31.3357 213.621 31.3997C213.077 31.4637 212.533 31.5437 211.989 31.6397C211.477 31.7357 210.965 31.8637 210.453 32.0237C209.973 32.1837 209.541 32.4077 209.157 32.6957C208.805 32.9517 208.517 33.2877 208.293 33.7037C208.069 34.1197 207.957 34.6477 207.957 35.2877C207.957 35.8957 208.069 36.4077 208.293 36.8237C208.517 37.2397 208.821 37.5757 209.205 37.8317C209.589 38.0557 210.037 38.2157 210.549 38.3117C211.061 38.4077 211.589 38.4557 212.133 38.4557C213.477 38.4557 214.517 38.2317 215.253 37.7837C215.989 37.3357 216.533 36.8077 216.885 36.1997C217.237 35.5597 217.445 34.9197 217.509 34.2797C217.605 33.6397 217.653 33.1277 217.653 32.7437V30.1997Z" fill="#2FD62F"/>
<path d="M229.472 8.07166H236.288V42.3437H229.472V8.07166Z" fill="#2FD62F"/>
<path d="M258.071 26.2637C257.623 23.4157 255.943 21.9917 253.031 21.9917C251.943 21.9917 251.031 22.2477 250.295 22.7597C249.559 23.2397 248.951 23.8797 248.471 24.6797C248.023 25.4477 247.703 26.3117 247.511 27.2717C247.319 28.1997 247.223 29.1277 247.223 30.0557C247.223 30.9517 247.319 31.8637 247.511 32.7917C247.703 33.7197 248.007 34.5677 248.423 35.3357C248.871 36.0717 249.463 36.6797 250.199 37.1597C250.935 37.6397 251.831 37.8797 252.887 37.8797C254.519 37.8797 255.767 37.4317 256.631 36.5357C257.527 35.6077 258.087 34.3757 258.311 32.8397H264.887C264.439 36.1357 263.159 38.6477 261.047 40.3757C258.935 42.1037 256.231 42.9677 252.935 42.9677C251.079 42.9677 249.367 42.6637 247.799 42.0557C246.263 41.4157 244.951 40.5357 243.863 39.4157C242.775 38.2957 241.927 36.9677 241.319 35.4317C240.711 33.8637 240.407 32.1517 240.407 30.2957C240.407 28.3757 240.679 26.5997 241.223 24.9677C241.799 23.3037 242.631 21.8797 243.719 20.6957C244.807 19.4797 246.135 18.5357 247.703 17.8637C249.271 17.1917 251.063 16.8557 253.079 16.8557C254.551 16.8557 255.959 17.0477 257.303 17.4317C258.679 17.8157 259.895 18.4077 260.951 19.2077C262.039 19.9757 262.919 20.9517 263.591 22.1357C264.263 23.2877 264.647 24.6637 264.743 26.2637H258.071Z" fill="#2FD62F"/>
<path d="M291.537 42.3437H285.057V38.8877H284.913C284.049 40.3277 282.929 41.3677 281.553 42.0077C280.177 42.6477 278.769 42.9677 277.329 42.9677C275.505 42.9677 274.001 42.7277 272.817 42.2477C271.665 41.7677 270.753 41.0957 270.081 40.2317C269.409 39.3357 268.929 38.2637 268.641 37.0157C268.385 35.7357 268.257 34.3277 268.257 32.7917V17.5277H275.073V31.5437C275.073 33.5917 275.393 35.1277 276.033 36.1517C276.673 37.1437 277.809 37.6397 279.441 37.6397C281.297 37.6397 282.641 37.0957 283.473 36.0077C284.305 34.8877 284.721 33.0637 284.721 30.5357V17.5277H291.537V42.3437Z" fill="#2FD62F"/>
<path d="M296.422 8.07166H303.238V42.3437H296.422V8.07166Z" fill="#2FD62F"/>
<path d="M307.837 25.1597C307.933 23.5597 308.333 22.2317 309.037 21.1757C309.741 20.1197 310.637 19.2717 311.725 18.6317C312.813 17.9917 314.029 17.5437 315.373 17.2877C316.749 16.9997 318.125 16.8557 319.501 16.8557C320.749 16.8557 322.013 16.9517 323.293 17.1437C324.573 17.3037 325.741 17.6397 326.797 18.1517C327.853 18.6637 328.717 19.3837 329.389 20.3117C330.061 21.2077 330.397 22.4077 330.397 23.9117V36.8237C330.397 37.9437 330.461 39.0157 330.589 40.0397C330.717 41.0637 330.941 41.8317 331.261 42.3437H324.349C324.221 41.9597 324.109 41.5757 324.013 41.1917C323.949 40.7757 323.901 40.3597 323.869 39.9437C322.781 41.0637 321.501 41.8477 320.029 42.2957C318.557 42.7437 317.053 42.9677 315.517 42.9677C314.333 42.9677 313.229 42.8237 312.205 42.5357C311.181 42.2477 310.285 41.7997 309.517 41.1917C308.749 40.5837 308.141 39.8157 307.693 38.8877C307.277 37.9597 307.069 36.8557 307.069 35.5757C307.069 34.1677 307.309 33.0157 307.789 32.1197C308.301 31.1917 308.941 30.4557 309.709 29.9117C310.509 29.3677 311.405 28.9677 312.397 28.7117C313.421 28.4237 314.445 28.1997 315.469 28.0397C316.493 27.8797 317.501 27.7517 318.493 27.6557C319.485 27.5597 320.365 27.4157 321.133 27.2237C321.901 27.0317 322.509 26.7597 322.957 26.4077C323.405 26.0237 323.613 25.4797 323.581 24.7757C323.581 24.0397 323.453 23.4637 323.197 23.0477C322.973 22.5997 322.653 22.2637 322.237 22.0397C321.853 21.7837 321.389 21.6237 320.845 21.5597C320.333 21.4637 319.773 21.4157 319.165 21.4157C317.821 21.4157 316.765 21.7037 315.997 22.2797C315.229 22.8557 314.781 23.8157 314.653 25.1597H307.837ZM323.581 30.1997C323.293 30.4557 322.925 30.6637 322.477 30.8237C322.061 30.9517 321.597 31.0637 321.085 31.1597C320.605 31.2557 320.093 31.3357 319.549 31.3997C319.005 31.4637 318.461 31.5437 317.917 31.6397C317.405 31.7357 316.893 31.8637 316.381 32.0237C315.901 32.1837 315.469 32.4077 315.085 32.6957C314.733 32.9517 314.445 33.2877 314.221 33.7037C313.997 34.1197 313.885 34.6477 313.885 35.2877C313.885 35.8957 313.997 36.4077 314.221 36.8237C314.445 37.2397 314.749 37.5757 315.133 37.8317C315.517 38.0557 315.965 38.2157 316.477 38.3117C316.989 38.4077 317.517 38.4557 318.061 38.4557C319.405 38.4557 320.445 38.2317 321.181 37.7837C321.917 37.3357 322.461 36.8077 322.813 36.1997C323.165 35.5597 323.373 34.9197 323.437 34.2797C323.533 33.6397 323.581 33.1277 323.581 32.7437V30.1997Z" fill="#2FD62F"/>
<path d="M343.848 17.5277H348.84V22.0877H343.848V34.3757C343.848 35.5277 344.04 36.2957 344.424 36.6797C344.808 37.0637 345.576 37.2557 346.728 37.2557C347.112 37.2557 347.48 37.2397 347.832 37.2077C348.184 37.1757 348.52 37.1277 348.84 37.0637V42.3437C348.264 42.4397 347.624 42.5037 346.92 42.5357C346.216 42.5677 345.528 42.5837 344.856 42.5837C343.8 42.5837 342.792 42.5037 341.832 42.3437C340.904 42.2157 340.072 41.9437 339.336 41.5277C338.632 41.1117 338.072 40.5197 337.656 39.7517C337.24 38.9837 337.032 37.9757 337.032 36.7277V22.0877H332.904V17.5277H337.032V10.0877H343.848V17.5277Z" fill="#2FD62F"/>
<path d="M357.651 29.9597C357.651 30.9517 357.747 31.9277 357.939 32.8877C358.131 33.8157 358.451 34.6637 358.899 35.4317C359.379 36.1677 360.003 36.7597 360.771 37.2077C361.539 37.6557 362.499 37.8797 363.651 37.8797C364.803 37.8797 365.763 37.6557 366.531 37.2077C367.331 36.7597 367.955 36.1677 368.403 35.4317C368.883 34.6637 369.219 33.8157 369.411 32.8877C369.603 31.9277 369.699 30.9517 369.699 29.9597C369.699 28.9677 369.603 27.9917 369.411 27.0317C369.219 26.0717 368.883 25.2237 368.403 24.4877C367.955 23.7517 367.331 23.1597 366.531 22.7117C365.763 22.2317 364.803 21.9917 363.651 21.9917C362.499 21.9917 361.539 22.2317 360.771 22.7117C360.003 23.1597 359.379 23.7517 358.899 24.4877C358.451 25.2237 358.131 26.0717 357.939 27.0317C357.747 27.9917 357.651 28.9677 357.651 29.9597ZM350.835 29.9597C350.835 27.9757 351.139 26.1837 351.747 24.5837C352.355 22.9517 353.219 21.5757 354.339 20.4557C355.459 19.3037 356.803 18.4237 358.371 17.8157C359.939 17.1757 361.699 16.8557 363.651 16.8557C365.603 16.8557 367.363 17.1757 368.931 17.8157C370.531 18.4237 371.891 19.3037 373.011 20.4557C374.131 21.5757 374.995 22.9517 375.603 24.5837C376.211 26.1837 376.515 27.9757 376.515 29.9597C376.515 31.9437 376.211 33.7357 375.603 35.3357C374.995 36.9357 374.131 38.3117 373.011 39.4637C371.891 40.5837 370.531 41.4477 368.931 42.0557C367.363 42.6637 365.603 42.9677 363.651 42.9677C361.699 42.9677 359.939 42.6637 358.371 42.0557C356.803 41.4477 355.459 40.5837 354.339 39.4637C353.219 38.3117 352.355 36.9357 351.747 35.3357C351.139 33.7357 350.835 31.9437 350.835 29.9597Z" fill="#2FD62F"/>
<path d="M380.467 17.5277H386.947V22.1357H387.043C387.363 21.3677 387.795 20.6637 388.339 20.0237C388.883 19.3517 389.507 18.7917 390.211 18.3437C390.915 17.8637 391.667 17.4957 392.467 17.2397C393.267 16.9837 394.099 16.8557 394.963 16.8557C395.411 16.8557 395.907 16.9357 396.451 17.0957V23.4317C396.131 23.3677 395.747 23.3197 395.299 23.2877C394.851 23.2237 394.419 23.1917 394.003 23.1917C392.755 23.1917 391.699 23.3997 390.835 23.8157C389.971 24.2317 389.267 24.8077 388.723 25.5437C388.211 26.2477 387.843 27.0797 387.619 28.0397C387.395 28.9997 387.283 30.0397 387.283 31.1597V42.3437H380.467V17.5277Z" fill="#2FD62F"/>
</svg>
