<svg width="519" height="48" viewBox="0 0 519 48" fill="none" xmlns="http://www.w3.org/2000/svg">
<path d="M201.955 24.3855C201.826 23.5181 201.537 22.7309 201.087 22.0241C200.638 21.2851 200.075 20.6426 199.401 20.0964C198.726 19.5502 197.955 19.1325 197.087 18.8434C196.252 18.5221 195.369 18.3614 194.437 18.3614C192.734 18.3614 191.288 18.6988 190.099 19.3735C188.911 20.0161 187.947 20.8996 187.208 22.0241C186.469 23.1165 185.923 24.3695 185.569 25.7831C185.248 27.1968 185.087 28.6586 185.087 30.1687C185.087 31.6145 185.248 33.0281 185.569 34.4096C185.923 35.759 186.469 36.9799 187.208 38.0723C187.947 39.1647 188.911 40.0482 190.099 40.7229C191.288 41.3655 192.734 41.6867 194.437 41.6867C196.75 41.6867 198.549 40.9799 199.834 39.5663C201.152 38.1526 201.955 36.2892 202.244 33.9759H209.569C209.377 36.1285 208.879 38.0723 208.075 39.8072C207.272 41.5422 206.212 43.0201 204.895 44.241C203.577 45.4618 202.035 46.3936 200.268 47.0361C198.501 47.6787 196.557 48 194.437 48C191.802 48 189.425 47.5502 187.304 46.6506C185.216 45.7189 183.449 44.4498 182.003 42.8434C180.557 41.2369 179.449 39.3574 178.678 37.2048C177.907 35.0201 177.521 32.6747 177.521 30.1687C177.521 27.5984 177.907 25.2209 178.678 23.0361C179.449 20.8193 180.557 18.8916 182.003 17.253C183.449 15.6145 185.216 14.3293 187.304 13.3976C189.425 12.4659 191.802 12 194.437 12C196.332 12 198.116 12.2731 199.786 12.8193C201.489 13.3655 202.999 14.1687 204.316 15.2289C205.666 16.257 206.774 17.5422 207.642 19.0843C208.509 20.6265 209.055 22.3936 209.28 24.3855H201.955Z" fill="#FEBE15"/>
<path d="M219.122 34.7952C219.122 35.7912 219.218 36.7711 219.411 37.7349C219.604 38.6667 219.925 39.5181 220.375 40.2892C220.857 41.0281 221.483 41.6225 222.254 42.0723C223.025 42.5221 223.989 42.747 225.146 42.747C226.302 42.747 227.266 42.5221 228.037 42.0723C228.841 41.6225 229.467 41.0281 229.917 40.2892C230.399 39.5181 230.736 38.6667 230.929 37.7349C231.122 36.7711 231.218 35.7912 231.218 34.7952C231.218 33.7992 231.122 32.8193 230.929 31.8554C230.736 30.8916 230.399 30.0402 229.917 29.3012C229.467 28.5622 228.841 27.9679 228.037 27.5181C227.266 27.0361 226.302 26.7952 225.146 26.7952C223.989 26.7952 223.025 27.0361 222.254 27.5181C221.483 27.9679 220.857 28.5622 220.375 29.3012C219.925 30.0402 219.604 30.8916 219.411 31.8554C219.218 32.8193 219.122 33.7992 219.122 34.7952ZM212.278 34.7952C212.278 32.8032 212.584 31.004 213.194 29.3976C213.804 27.759 214.672 26.3775 215.796 25.253C216.921 24.0964 218.27 23.2129 219.845 22.6024C221.419 21.9598 223.186 21.6386 225.146 21.6386C227.106 21.6386 228.873 21.9598 230.447 22.6024C232.053 23.2129 233.419 24.0964 234.543 25.253C235.668 26.3775 236.535 27.759 237.146 29.3976C237.756 31.004 238.061 32.8032 238.061 34.7952C238.061 36.7871 237.756 38.5863 237.146 40.1928C236.535 41.7992 235.668 43.1807 234.543 44.3373C233.419 45.4618 232.053 46.3293 230.447 46.9398C228.873 47.5502 227.106 47.8554 225.146 47.8554C223.186 47.8554 221.419 47.5502 219.845 46.9398C218.27 46.3293 216.921 45.4618 215.796 44.3373C214.672 43.1807 213.804 41.7992 213.194 40.1928C212.584 38.5863 212.278 36.7871 212.278 34.7952Z" fill="#FEBE15"/>
<path d="M264.921 47.2289H258.415V43.759H258.27C257.403 45.2048 256.278 46.249 254.897 46.8916C253.515 47.5341 252.101 47.8554 250.656 47.8554C248.824 47.8554 247.314 47.6145 246.125 47.1325C244.969 46.6506 244.053 45.9759 243.378 45.1084C242.704 44.2088 242.222 43.1325 241.933 41.8795C241.676 40.5944 241.547 39.1807 241.547 37.6386V22.3133H248.39V36.3855C248.39 38.4418 248.712 39.9839 249.354 41.012C249.997 42.008 251.137 42.506 252.776 42.506C254.639 42.506 255.989 41.9598 256.824 40.8675C257.66 39.743 258.077 37.9116 258.077 35.3735V22.3133H264.921V47.2289Z" fill="#FEBE15"/>
<path d="M269.151 22.3133H275.657V26.9398H275.753C276.074 26.1687 276.508 25.4618 277.054 24.8193C277.6 24.1446 278.227 23.5823 278.934 23.1325C279.641 22.6506 280.396 22.2811 281.199 22.0241C282.002 21.7671 282.837 21.6386 283.705 21.6386C284.155 21.6386 284.653 21.7189 285.199 21.8795V28.241C284.878 28.1767 284.492 28.1285 284.042 28.0964C283.592 28.0321 283.159 28 282.741 28C281.488 28 280.428 28.2088 279.56 28.6265C278.693 29.0442 277.986 29.6225 277.44 30.3614C276.926 31.0683 276.556 31.9036 276.331 32.8675C276.106 33.8313 275.994 34.8755 275.994 36V47.2289H269.151V22.3133Z" fill="#FEBE15"/>
<path d="M292.219 39.1325C292.219 39.8715 292.364 40.5141 292.653 41.0602C292.974 41.5743 293.376 42.008 293.858 42.3614C294.34 42.6827 294.886 42.9237 295.496 43.0843C296.139 43.245 296.798 43.3253 297.472 43.3253C297.954 43.3253 298.452 43.2771 298.966 43.1807C299.512 43.0522 299.994 42.8755 300.412 42.6506C300.862 42.3936 301.231 42.0723 301.52 41.6867C301.81 41.2691 301.954 40.755 301.954 40.1446C301.954 39.1165 301.263 38.3454 299.882 37.8313C298.532 37.3173 296.637 36.8032 294.195 36.2892C293.199 36.0643 292.219 35.8072 291.255 35.5181C290.324 35.1968 289.488 34.7952 288.749 34.3133C288.01 33.7992 287.416 33.1727 286.966 32.4337C286.516 31.6626 286.291 30.7309 286.291 29.6386C286.291 28.0321 286.597 26.7149 287.207 25.6867C287.85 24.6586 288.685 23.8554 289.713 23.2771C290.741 22.6667 291.898 22.249 293.183 22.0241C294.468 21.7671 295.785 21.6386 297.135 21.6386C298.484 21.6386 299.785 21.7671 301.038 22.0241C302.324 22.2811 303.464 22.7149 304.46 23.3253C305.456 23.9357 306.275 24.755 306.918 25.7831C307.593 26.7791 307.994 28.0482 308.123 29.5904H301.617C301.52 28.2731 301.022 27.3896 300.123 26.9398C299.223 26.4578 298.163 26.2169 296.942 26.2169C296.557 26.2169 296.139 26.249 295.689 26.3133C295.239 26.3454 294.822 26.4418 294.436 26.6024C294.083 26.7631 293.777 27.004 293.52 27.3253C293.263 27.6145 293.135 28.0161 293.135 28.5301C293.135 29.1406 293.36 29.6386 293.81 30.0241C294.259 30.4096 294.838 30.7309 295.544 30.988C296.283 31.2128 297.119 31.4217 298.051 31.6145C298.982 31.8072 299.93 32.0161 300.894 32.241C301.89 32.4659 302.854 32.739 303.785 33.0602C304.749 33.3815 305.601 33.8153 306.34 34.3614C307.079 34.8755 307.673 35.5341 308.123 36.3373C308.573 37.1084 308.798 38.0723 308.798 39.2289C308.798 40.8675 308.46 42.249 307.785 43.3735C307.143 44.4659 306.291 45.3494 305.231 46.0241C304.171 46.6988 302.95 47.1647 301.569 47.4217C300.219 47.7108 298.838 47.8554 297.424 47.8554C295.978 47.8554 294.565 47.7108 293.183 47.4217C291.802 47.1325 290.565 46.6506 289.472 45.9759C288.412 45.3012 287.528 44.4177 286.822 43.3253C286.147 42.2008 285.777 40.8032 285.713 39.1325H292.219Z" fill="#FEBE15"/>
<path d="M328.61 32.0964C328.289 30.3614 327.71 29.0442 326.875 28.1446C326.072 27.245 324.835 26.7952 323.164 26.7952C322.072 26.7952 321.156 26.988 320.417 27.3735C319.71 27.7269 319.132 28.1767 318.682 28.7229C318.265 29.2691 317.959 29.8474 317.767 30.4578C317.606 31.0683 317.51 31.6145 317.477 32.0964H328.61ZM317.477 36.4337C317.574 38.6506 318.136 40.257 319.164 41.253C320.192 42.249 321.67 42.747 323.598 42.747C324.979 42.747 326.168 42.4096 327.164 41.7349C328.16 41.0281 328.771 40.2892 328.996 39.5181H335.02C334.056 42.506 332.578 44.6426 330.586 45.9277C328.594 47.2129 326.184 47.8554 323.357 47.8554C321.397 47.8554 319.63 47.5502 318.056 46.9398C316.481 46.2972 315.148 45.3976 314.056 44.241C312.963 43.0843 312.112 41.7028 311.502 40.0964C310.923 38.49 310.634 36.7229 310.634 34.7952C310.634 32.9317 310.939 31.1968 311.55 29.5904C312.16 27.9839 313.028 26.6024 314.152 25.4458C315.277 24.257 316.61 23.3253 318.152 22.6506C319.726 21.9759 321.461 21.6386 323.357 21.6386C325.477 21.6386 327.325 22.0562 328.899 22.8916C330.473 23.6948 331.759 24.7871 332.755 26.1687C333.783 27.5502 334.522 29.1245 334.971 30.8916C335.421 32.6586 335.582 34.506 335.453 36.4337H317.477Z" fill="#FEBE15"/>
<path d="M359.287 29.012H365.166C366.034 29.012 366.869 28.9478 367.672 28.8193C368.475 28.6908 369.182 28.4498 369.793 28.0964C370.403 27.7108 370.885 27.1807 371.238 26.506C371.624 25.8313 371.817 24.9478 371.817 23.8554C371.817 22.7631 371.624 21.8795 371.238 21.2048C370.885 20.5301 370.403 20.0161 369.793 19.6626C369.182 19.2771 368.475 19.0201 367.672 18.8916C366.869 18.7631 366.034 18.6988 365.166 18.6988H359.287V29.012ZM351.72 12.8193H367.238C369.391 12.8193 371.222 13.1406 372.732 13.7831C374.242 14.3936 375.463 15.2129 376.395 16.241C377.359 17.2691 378.05 18.4418 378.467 19.759C378.917 21.0763 379.142 22.4418 379.142 23.8554C379.142 25.2369 378.917 26.6024 378.467 27.9518C378.05 29.2691 377.359 30.4418 376.395 31.4699C375.463 32.498 374.242 33.3333 372.732 33.9759C371.222 34.5863 369.391 34.8916 367.238 34.8916H359.287V47.2289H351.72V12.8193Z" fill="#FEBE15"/>
<path d="M382.371 12.8193H389.214V47.2289H382.371V12.8193Z" fill="#FEBE15"/>
<path d="M393.349 29.9759C393.446 28.3695 393.847 27.0361 394.554 25.9759C395.261 24.9157 396.161 24.0643 397.253 23.4217C398.345 22.7791 399.566 22.3293 400.916 22.0723C402.297 21.7831 403.679 21.6386 405.06 21.6386C406.313 21.6386 407.582 21.7349 408.868 21.9277C410.153 22.0884 411.325 22.4257 412.386 22.9398C413.446 23.4538 414.313 24.1767 414.988 25.1084C415.663 26.008 416 27.2129 416 28.7229V41.6867C416 42.8112 416.064 43.8875 416.193 44.9157C416.321 45.9438 416.546 46.7149 416.868 47.2289H409.928C409.799 46.8434 409.687 46.4578 409.59 46.0723C409.526 45.6546 409.478 45.2369 409.446 44.8193C408.353 45.9438 407.068 46.7309 405.59 47.1807C404.113 47.6305 402.602 47.8554 401.06 47.8554C399.872 47.8554 398.763 47.7108 397.735 47.4217C396.707 47.1325 395.807 46.6827 395.036 46.0723C394.265 45.4618 393.655 44.6908 393.205 43.759C392.787 42.8273 392.578 41.7189 392.578 40.4337C392.578 39.0201 392.819 37.8635 393.301 36.9639C393.815 36.0321 394.458 35.2932 395.229 34.747C396.032 34.2008 396.932 33.7992 397.928 33.5422C398.956 33.253 399.984 33.0281 401.012 32.8675C402.04 32.7068 403.052 32.5783 404.048 32.4819C405.044 32.3855 405.928 32.241 406.699 32.0482C407.47 31.8554 408.08 31.5823 408.53 31.2289C408.98 30.8434 409.189 30.2972 409.157 29.5904C409.157 28.8514 409.028 28.2731 408.771 27.8554C408.546 27.4056 408.225 27.0683 407.807 26.8434C407.422 26.5863 406.956 26.4257 406.41 26.3614C405.896 26.2651 405.333 26.2169 404.723 26.2169C403.374 26.2169 402.313 26.506 401.542 27.0843C400.771 27.6627 400.321 28.6265 400.193 29.9759H393.349ZM409.157 35.0361C408.868 35.2932 408.498 35.502 408.048 35.6627C407.631 35.7912 407.165 35.9036 406.651 36C406.169 36.0964 405.655 36.1767 405.109 36.241C404.562 36.3052 404.016 36.3855 403.47 36.4819C402.956 36.5783 402.442 36.7068 401.928 36.8675C401.446 37.0281 401.012 37.253 400.627 37.5422C400.273 37.7992 399.984 38.1365 399.759 38.5542C399.534 38.9719 399.422 39.502 399.422 40.1446C399.422 40.755 399.534 41.2691 399.759 41.6867C399.984 42.1044 400.289 42.4418 400.675 42.6988C401.06 42.9237 401.51 43.0843 402.024 43.1807C402.538 43.2771 403.068 43.3253 403.615 43.3253C404.964 43.3253 406.008 43.1004 406.747 42.6506C407.486 42.2008 408.032 41.6707 408.386 41.0602C408.739 40.4177 408.948 39.7751 409.012 39.1325C409.109 38.49 409.157 37.9759 409.157 37.5904V35.0361Z" fill="#FEBE15"/>
<path d="M420.348 22.3133H426.854V25.7831H426.999C427.866 24.3373 428.991 23.2932 430.372 22.6506C431.754 21.9759 433.167 21.6386 434.613 21.6386C436.444 21.6386 437.938 21.8956 439.095 22.4096C440.284 22.8916 441.215 23.5823 441.89 24.4819C442.565 25.3494 443.031 26.4257 443.288 27.7108C443.577 28.9639 443.721 30.3614 443.721 31.9036V47.2289H436.878V33.1566C436.878 31.1004 436.557 29.5743 435.914 28.5783C435.272 27.5502 434.131 27.0361 432.493 27.0361C430.629 27.0361 429.28 27.5984 428.444 28.7229C427.609 29.8153 427.191 31.6305 427.191 34.1687V47.2289H420.348V22.3133Z" fill="#FEBE15"/>
<path d="M447.952 22.3133H454.458V25.7831H454.602C455.47 24.3373 456.594 23.2932 457.976 22.6506C459.357 21.9759 460.771 21.6386 462.217 21.6386C464.048 21.6386 465.542 21.8956 466.699 22.4096C467.887 22.8916 468.819 23.5823 469.494 24.4819C470.168 25.3494 470.634 26.4257 470.891 27.7108C471.18 28.9639 471.325 30.3614 471.325 31.9036V47.2289H464.482V33.1566C464.482 31.1004 464.16 29.5743 463.518 28.5783C462.875 27.5502 461.735 27.0361 460.096 27.0361C458.233 27.0361 456.883 27.5984 456.048 28.7229C455.213 29.8153 454.795 31.6305 454.795 34.1687V47.2289H447.952V22.3133Z" fill="#FEBE15"/>
<path d="M492.326 32.0964C492.005 30.3614 491.427 29.0442 490.591 28.1446C489.788 27.245 488.551 26.7952 486.88 26.7952C485.788 26.7952 484.872 26.988 484.133 27.3735C483.427 27.7269 482.848 28.1767 482.398 28.7229C481.981 29.2691 481.676 29.8474 481.483 30.4578C481.322 31.0683 481.226 31.6145 481.194 32.0964H492.326ZM481.194 36.4337C481.29 38.6506 481.852 40.257 482.88 41.253C483.908 42.249 485.386 42.747 487.314 42.747C488.696 42.747 489.884 42.4096 490.88 41.7349C491.876 41.0281 492.487 40.2892 492.712 39.5181H498.736C497.772 42.506 496.294 44.6426 494.302 45.9277C492.31 47.2129 489.9 47.8554 487.073 47.8554C485.113 47.8554 483.346 47.5502 481.772 46.9398C480.198 46.2972 478.864 45.3976 477.772 44.241C476.68 43.0843 475.828 41.7028 475.218 40.0964C474.639 38.49 474.35 36.7229 474.35 34.7952C474.35 32.9317 474.655 31.1968 475.266 29.5904C475.876 27.9839 476.744 26.6024 477.868 25.4458C478.993 24.257 480.326 23.3253 481.868 22.6506C483.443 21.9759 485.178 21.6386 487.073 21.6386C489.194 21.6386 491.041 22.0562 492.615 22.8916C494.19 23.6948 495.475 24.7871 496.471 26.1687C497.499 27.5502 498.238 29.1245 498.688 30.8916C499.137 32.6586 499.298 34.506 499.17 36.4337H481.194Z" fill="#FEBE15"/>
<path d="M502.264 22.3133H508.77V26.9398H508.867C509.188 26.1687 509.622 25.4618 510.168 24.8193C510.714 24.1446 511.341 23.5823 512.048 23.1325C512.754 22.6506 513.509 22.2811 514.313 22.0241C515.116 21.7671 515.951 21.6386 516.819 21.6386C517.268 21.6386 517.766 21.7189 518.313 21.8795V28.241C517.991 28.1767 517.606 28.1285 517.156 28.0964C516.706 28.0321 516.272 28 515.855 28C514.602 28 513.541 28.2088 512.674 28.6265C511.807 29.0442 511.1 29.6225 510.554 30.3614C510.039 31.0683 509.67 31.9036 509.445 32.8675C509.22 33.8313 509.108 34.8755 509.108 36V47.2289H502.264V22.3133Z" fill="#FEBE15"/>
<g clip-path="url(#clip0_122_11)">
<path d="M78.2136 12.3273C77.3932 11.2909 76.2993 10.5273 74.8772 10.0364C73.4552 9.54545 72.1425 9.27273 70.8845 9.27273C70.1735 9.27273 69.4077 9.38182 68.642 9.54545C67.8763 9.70909 67.1106 9.98182 66.4542 10.3636C65.7432 10.7455 65.1962 11.2364 64.7587 11.8364C64.3211 12.4364 64.1023 13.1455 64.1023 14.0182C64.1023 15.3818 64.5946 16.4727 65.6338 17.1818C66.673 17.8909 67.9857 18.5455 69.5718 19.0364C71.158 19.5273 72.8535 20.0727 74.6585 20.5636C76.4634 21.0545 78.1589 21.8182 79.7451 22.7455C81.3312 23.6727 82.6439 24.9818 83.6831 26.5636C84.7223 28.1455 85.2146 30.2727 85.2146 32.9455C85.2146 35.5091 84.7223 37.6909 83.7925 39.6C82.8627 41.5091 81.55 43.0364 79.9639 44.2909C78.323 45.5455 76.4634 46.4727 74.3303 47.0727C72.1972 47.6727 69.9547 48 67.5481 48C64.5946 48 61.8052 47.5636 59.2892 46.6364C56.7185 45.7091 54.3667 44.2909 52.1789 42.2727L59.3439 34.3636C60.3831 35.7273 61.6958 36.8182 63.2819 37.5818C64.8681 38.3455 66.5089 38.7273 68.1498 38.7273C68.9702 38.7273 69.7906 38.6182 70.6657 38.4545C71.4862 38.2364 72.2519 37.9636 72.9082 37.5818C73.5646 37.2 74.1115 36.7091 74.5491 36.1091C74.9319 35.5091 75.1507 34.8 75.1507 33.9818C75.1507 32.6182 74.6038 31.5273 73.5646 30.7091C72.5254 29.8909 71.158 29.2364 69.5718 28.6909C67.9857 28.1455 66.2354 27.6 64.3758 27C62.5162 26.4545 60.8207 25.6909 59.1798 24.7636C57.5937 23.8364 56.281 22.5818 55.1871 21C54.1479 19.4727 53.6009 17.4 53.6009 14.8909C53.6009 12.4364 54.0932 10.3091 55.0777 8.45455C56.0622 6.6 57.3202 5.07273 58.961 3.81818C60.6019 2.56364 62.4615 1.63636 64.5399 1.03636C66.6183 0.436364 68.8608 0 71.1033 0C73.6739 0 76.1899 0.381818 78.5965 1.09091C81.0031 1.8 83.1909 3.05455 85.1052 4.74545L78.2136 12.3273ZM102.334 1.14545H112.398V46.8H102.334V1.14545ZM157.521 1.14545H135.151V8.23636H147.403V31.3636C147.403 36.7091 145.434 39 142.644 39C140.073 39 137.558 37.2545 136.846 30.1091L127.22 31.2C128.697 46.3636 137.065 48 142.863 48C152.927 48 157.521 42.1636 157.521 33.8182V1.14545ZM31.012 46.8545H42.6073L28.0585 1.2V1.14545H14.5488L0 46.8545H11.5953L13.6737 39.2727H28.9883L31.012 46.8545ZM16.1897 30.2182L21.4404 11.2364L26.527 30.2182H16.1897Z" fill="#FEBE15"/>
</g>
<defs>
<clipPath id="clip0_122_11">
<rect width="157.521" height="48" fill="white"/>
</clipPath>
</defs>
</svg>
