<svg width="438" height="48" viewBox="0 0 438 48" fill="none" xmlns="http://www.w3.org/2000/svg">
<path d="M54.8989 40.4267L53.4586 26.139C53.4033 25.5904 52.8548 25.2337 52.3309 25.4056L35.5231 30.9206C34.6388 31.2108 33.6844 31.2073 32.8023 30.9106L16.467 25.4171C15.9406 25.24 15.3865 25.5991 15.333 26.1519L13.945 40.4945C13.8769 41.1977 14.0877 41.9087 14.607 42.3877C22.1688 49.3634 45.2337 50.3518 54.1749 42.4147C54.7332 41.9191 54.9738 41.1694 54.8989 40.4267Z" fill="#2463EB"/>
<path d="M35.0123 0.152632L66.7573 11.564C69.054 12.3896 69.0374 15.6434 66.7325 16.4456L34.9873 27.4936C34.4328 27.6865 33.8293 27.6853 33.2756 27.4902L16.1459 21.4525C15.4954 21.2232 15.3744 20.3777 15.965 20.0215C19.13 18.1127 24.6837 15.8595 34.0958 12.1838C35.0929 11.7944 35.4712 10.5768 34.8659 9.69398C34.4341 9.06421 33.6284 8.80991 32.9131 9.07706C22.8944 12.8188 16.0359 15.3457 12.8389 17.7582C12.6561 17.8962 12.495 18.0618 12.3559 18.2438C8.32176 23.5193 7.09109 28.3896 9.82522 35.111C10.682 37.8582 11.2916 39.1495 10.2546 46.6518C10.2297 46.884 10.1138 47.1068 9.9141 47.228C6.90203 49.056 -0.0926033 46.7576 0.00092886 44.5069C0.00595799 44.3859 0.0604352 44.277 0.134577 44.1814L0.138423 44.1764C0.17055 44.135 0.202968 44.0932 0.230321 44.0486C3.09555 39.3691 5.64937 35.8505 5.12451 32.5596C4.59704 29.2523 5.61908 20.4599 8.0168 18.3682L1.93114 16.4422C-0.360829 15.6344 -0.377447 12.399 1.9061 11.5676L33.2508 0.15621C33.8195 -0.0508334 34.4427 -0.0520996 35.0123 0.152632Z" fill="#2463EB"/>
<path d="M110.395 19.425C110.267 18.561 109.979 17.777 109.531 17.073C109.083 16.337 108.523 15.697 107.851 15.153C107.179 14.609 106.411 14.193 105.547 13.905C104.715 13.585 103.835 13.425 102.907 13.425C101.211 13.425 99.7713 13.761 98.5873 14.433C97.4033 15.073 96.4433 15.953 95.7073 17.073C94.9713 18.161 94.4273 19.409 94.0753 20.817C93.7553 22.225 93.5953 23.681 93.5953 25.185C93.5953 26.625 93.7553 28.033 94.0753 29.409C94.4273 30.753 94.9713 31.969 95.7073 33.057C96.4433 34.145 97.4033 35.025 98.5873 35.697C99.7713 36.337 101.211 36.657 102.907 36.657C105.211 36.657 107.003 35.953 108.283 34.545C109.595 33.137 110.395 31.281 110.683 28.977H117.979C117.787 31.121 117.291 33.057 116.491 34.785C115.691 36.513 114.635 37.985 113.323 39.201C112.011 40.417 110.475 41.345 108.715 41.985C106.955 42.625 105.019 42.945 102.907 42.945C100.283 42.945 97.9153 42.497 95.8033 41.601C93.7233 40.673 91.9633 39.409 90.5233 37.809C89.0833 36.209 87.9793 34.337 87.2113 32.193C86.4433 30.017 86.0593 27.681 86.0593 25.185C86.0593 22.625 86.4433 20.257 87.2113 18.081C87.9793 15.873 89.0833 13.953 90.5233 12.321C91.9633 10.689 93.7233 9.40899 95.8033 8.48099C97.9153 7.55299 100.283 7.08899 102.907 7.08899C104.795 7.08899 106.571 7.36099 108.235 7.90499C109.931 8.44899 111.435 9.24899 112.747 10.305C114.091 11.329 115.195 12.609 116.059 14.145C116.923 15.681 117.467 17.441 117.691 19.425H110.395Z" fill="#2463EB"/>
<path d="M128.453 29.793C128.453 30.785 128.549 31.761 128.741 32.721C128.933 33.649 129.253 34.497 129.701 35.265C130.181 36.001 130.805 36.593 131.573 37.041C132.341 37.489 133.301 37.713 134.453 37.713C135.605 37.713 136.565 37.489 137.333 37.041C138.133 36.593 138.757 36.001 139.205 35.265C139.685 34.497 140.021 33.649 140.213 32.721C140.405 31.761 140.501 30.785 140.501 29.793C140.501 28.801 140.405 27.825 140.213 26.865C140.021 25.905 139.685 25.057 139.205 24.321C138.757 23.585 138.133 22.993 137.333 22.545C136.565 22.065 135.605 21.825 134.453 21.825C133.301 21.825 132.341 22.065 131.573 22.545C130.805 22.993 130.181 23.585 129.701 24.321C129.253 25.057 128.933 25.905 128.741 26.865C128.549 27.825 128.453 28.801 128.453 29.793ZM121.637 29.793C121.637 27.809 121.941 26.017 122.549 24.417C123.157 22.785 124.021 21.409 125.141 20.289C126.261 19.137 127.605 18.257 129.173 17.649C130.741 17.009 132.501 16.689 134.453 16.689C136.405 16.689 138.165 17.009 139.733 17.649C141.333 18.257 142.693 19.137 143.813 20.289C144.933 21.409 145.797 22.785 146.405 24.417C147.013 26.017 147.317 27.809 147.317 29.793C147.317 31.777 147.013 33.569 146.405 35.169C145.797 36.769 144.933 38.145 143.813 39.297C142.693 40.417 141.333 41.281 139.733 41.889C138.165 42.497 136.405 42.801 134.453 42.801C132.501 42.801 130.741 42.497 129.173 41.889C127.605 41.281 126.261 40.417 125.141 39.297C124.021 38.145 123.157 36.769 122.549 35.169C121.941 33.569 121.637 31.777 121.637 29.793Z" fill="#2463EB"/>
<path d="M175.029 42.177H168.549V38.721H168.405C167.541 40.161 166.421 41.201 165.045 41.841C163.669 42.481 162.261 42.801 160.821 42.801C158.997 42.801 157.493 42.561 156.309 42.081C155.157 41.601 154.245 40.929 153.573 40.065C152.901 39.169 152.421 38.097 152.133 36.849C151.877 35.569 151.749 34.161 151.749 32.625V17.361H158.565V31.377C158.565 33.425 158.885 34.961 159.525 35.985C160.165 36.977 161.301 37.473 162.933 37.473C164.789 37.473 166.133 36.929 166.965 35.841C167.797 34.721 168.213 32.897 168.213 30.369V17.361H175.029V42.177Z" fill="#2463EB"/>
<path d="M180.202 17.361H186.682V21.969H186.778C187.098 21.201 187.53 20.497 188.074 19.857C188.618 19.185 189.242 18.625 189.946 18.177C190.65 17.697 191.402 17.329 192.202 17.073C193.002 16.817 193.834 16.689 194.698 16.689C195.146 16.689 195.642 16.769 196.186 16.929V23.265C195.866 23.201 195.482 23.153 195.034 23.121C194.586 23.057 194.154 23.025 193.738 23.025C192.49 23.025 191.434 23.233 190.57 23.649C189.706 24.065 189.002 24.641 188.458 25.377C187.946 26.081 187.578 26.913 187.354 27.873C187.13 28.833 187.018 29.873 187.018 30.993V42.177H180.202V17.361Z" fill="#2463EB"/>
<path d="M204.139 34.113C204.139 34.849 204.283 35.489 204.571 36.033C204.891 36.545 205.291 36.977 205.771 37.329C206.251 37.649 206.795 37.889 207.403 38.049C208.043 38.209 208.699 38.289 209.371 38.289C209.851 38.289 210.347 38.241 210.859 38.145C211.403 38.017 211.883 37.841 212.299 37.617C212.747 37.361 213.115 37.041 213.403 36.657C213.691 36.241 213.835 35.729 213.835 35.121C213.835 34.097 213.147 33.329 211.771 32.817C210.427 32.305 208.539 31.793 206.107 31.281C205.115 31.057 204.139 30.801 203.179 30.513C202.251 30.193 201.419 29.793 200.683 29.313C199.947 28.801 199.355 28.177 198.907 27.441C198.459 26.673 198.235 25.745 198.235 24.657C198.235 23.057 198.539 21.745 199.147 20.721C199.787 19.697 200.619 18.897 201.643 18.321C202.667 17.713 203.819 17.297 205.099 17.073C206.379 16.817 207.691 16.689 209.035 16.689C210.379 16.689 211.675 16.817 212.923 17.073C214.203 17.329 215.339 17.761 216.331 18.369C217.323 18.977 218.139 19.793 218.779 20.817C219.451 21.809 219.851 23.073 219.979 24.609H213.499C213.403 23.297 212.907 22.417 212.011 21.969C211.115 21.489 210.059 21.249 208.843 21.249C208.459 21.249 208.043 21.281 207.595 21.345C207.147 21.377 206.731 21.473 206.347 21.633C205.995 21.793 205.691 22.033 205.435 22.353C205.179 22.641 205.051 23.041 205.051 23.553C205.051 24.161 205.275 24.657 205.723 25.041C206.171 25.425 206.747 25.745 207.451 26.001C208.187 26.225 209.019 26.433 209.947 26.625C210.875 26.817 211.819 27.025 212.779 27.249C213.771 27.473 214.731 27.745 215.659 28.065C216.619 28.385 217.467 28.817 218.203 29.361C218.939 29.873 219.531 30.529 219.979 31.329C220.427 32.097 220.651 33.057 220.651 34.209C220.651 35.841 220.315 37.217 219.643 38.337C219.003 39.425 218.155 40.305 217.099 40.977C216.043 41.649 214.827 42.113 213.451 42.369C212.107 42.657 210.731 42.801 209.323 42.801C207.883 42.801 206.475 42.657 205.099 42.369C203.723 42.081 202.491 41.601 201.403 40.929C200.347 40.257 199.467 39.377 198.763 38.289C198.091 37.169 197.723 35.777 197.659 34.113H204.139Z" fill="#2463EB"/>
<path d="M241.344 27.105C241.024 25.377 240.448 24.065 239.616 23.169C238.816 22.273 237.584 21.825 235.92 21.825C234.832 21.825 233.92 22.017 233.184 22.401C232.48 22.753 231.904 23.201 231.456 23.745C231.04 24.289 230.736 24.865 230.544 25.473C230.384 26.081 230.288 26.625 230.256 27.105H241.344ZM230.256 31.425C230.352 33.633 230.912 35.233 231.936 36.225C232.96 37.217 234.432 37.713 236.352 37.713C237.728 37.713 238.912 37.377 239.904 36.705C240.896 36.001 241.504 35.265 241.728 34.497H247.728C246.768 37.473 245.296 39.601 243.312 40.881C241.328 42.161 238.928 42.801 236.112 42.801C234.16 42.801 232.4 42.497 230.832 41.889C229.264 41.249 227.936 40.353 226.848 39.201C225.76 38.049 224.912 36.673 224.304 35.073C223.728 33.473 223.44 31.713 223.44 29.793C223.44 27.937 223.744 26.209 224.352 24.609C224.96 23.009 225.824 21.633 226.944 20.481C228.064 19.297 229.392 18.369 230.928 17.697C232.496 17.025 234.224 16.689 236.112 16.689C238.224 16.689 240.064 17.105 241.632 17.937C243.2 18.737 244.48 19.825 245.472 21.201C246.496 22.577 247.232 24.145 247.68 25.905C248.128 27.665 248.288 29.505 248.16 31.425H230.256Z" fill="#2463EB"/>
<path d="M273.818 24.033H279.674C280.538 24.033 281.37 23.969 282.17 23.841C282.97 23.713 283.674 23.473 284.282 23.121C284.89 22.737 285.37 22.209 285.722 21.537C286.106 20.865 286.298 19.985 286.298 18.897C286.298 17.809 286.106 16.929 285.722 16.257C285.37 15.585 284.89 15.073 284.282 14.721C283.674 14.337 282.97 14.081 282.17 13.953C281.37 13.825 280.538 13.761 279.674 13.761H273.818V24.033ZM266.282 7.90499H281.738C283.882 7.90499 285.706 8.22499 287.21 8.86499C288.714 9.47299 289.93 10.289 290.858 11.313C291.818 12.337 292.506 13.505 292.922 14.817C293.37 16.129 293.594 17.489 293.594 18.897C293.594 20.273 293.37 21.633 292.922 22.977C292.506 24.289 291.818 25.457 290.858 26.481C289.93 27.505 288.714 28.337 287.21 28.977C285.706 29.585 283.882 29.889 281.738 29.889H273.818V42.177H266.282V7.90499Z" fill="#2463EB"/>
<path d="M297.769 7.90499H304.585V42.177H297.769V7.90499Z" fill="#2463EB"/>
<path d="M309.664 24.993C309.76 23.393 310.16 22.065 310.864 21.009C311.568 19.953 312.464 19.105 313.552 18.465C314.64 17.825 315.856 17.377 317.2 17.121C318.576 16.833 319.952 16.689 321.328 16.689C322.576 16.689 323.84 16.785 325.12 16.977C326.4 17.137 327.568 17.473 328.624 17.985C329.68 18.497 330.544 19.217 331.216 20.145C331.888 21.041 332.224 22.241 332.224 23.745V36.657C332.224 37.777 332.288 38.849 332.416 39.873C332.544 40.897 332.768 41.665 333.088 42.177H326.176C326.048 41.793 325.936 41.409 325.84 41.025C325.776 40.609 325.728 40.193 325.696 39.777C324.608 40.897 323.328 41.681 321.856 42.129C320.384 42.577 318.88 42.801 317.344 42.801C316.16 42.801 315.056 42.657 314.032 42.369C313.008 42.081 312.112 41.633 311.344 41.025C310.576 40.417 309.968 39.649 309.52 38.721C309.104 37.793 308.896 36.689 308.896 35.409C308.896 34.001 309.136 32.849 309.616 31.953C310.128 31.025 310.768 30.289 311.536 29.745C312.336 29.201 313.232 28.801 314.224 28.545C315.248 28.257 316.272 28.033 317.296 27.873C318.32 27.713 319.328 27.585 320.32 27.489C321.312 27.393 322.192 27.249 322.96 27.057C323.728 26.865 324.336 26.593 324.784 26.241C325.232 25.857 325.44 25.313 325.408 24.609C325.408 23.873 325.28 23.297 325.024 22.881C324.8 22.433 324.48 22.097 324.064 21.873C323.68 21.617 323.216 21.457 322.672 21.393C322.16 21.297 321.6 21.249 320.992 21.249C319.648 21.249 318.592 21.537 317.824 22.113C317.056 22.689 316.608 23.649 316.48 24.993H309.664ZM325.408 30.033C325.12 30.289 324.752 30.497 324.304 30.657C323.888 30.785 323.424 30.897 322.912 30.993C322.432 31.089 321.92 31.169 321.376 31.233C320.832 31.297 320.288 31.377 319.744 31.473C319.232 31.569 318.72 31.697 318.208 31.857C317.728 32.017 317.296 32.241 316.912 32.529C316.56 32.785 316.272 33.121 316.048 33.537C315.824 33.953 315.712 34.481 315.712 35.121C315.712 35.729 315.824 36.241 316.048 36.657C316.272 37.073 316.576 37.409 316.96 37.665C317.344 37.889 317.792 38.049 318.304 38.145C318.816 38.241 319.344 38.289 319.888 38.289C321.232 38.289 322.272 38.065 323.008 37.617C323.744 37.169 324.288 36.641 324.64 36.033C324.992 35.393 325.2 34.753 325.264 34.113C325.36 33.473 325.408 32.961 325.408 32.577V30.033Z" fill="#2463EB"/>
<path d="M337.515 17.361H343.995V20.817H344.139C345.003 19.377 346.123 18.337 347.499 17.697C348.875 17.025 350.283 16.689 351.723 16.689C353.547 16.689 355.035 16.945 356.187 17.457C357.371 17.937 358.299 18.625 358.971 19.521C359.643 20.385 360.107 21.457 360.363 22.737C360.651 23.985 360.795 25.377 360.795 26.913V42.177H353.979V28.161C353.979 26.113 353.659 24.593 353.019 23.601C352.379 22.577 351.243 22.065 349.611 22.065C347.755 22.065 346.411 22.625 345.579 23.745C344.747 24.833 344.331 26.641 344.331 29.169V42.177H337.515V17.361Z" fill="#2463EB"/>
<path d="M365.968 17.361H372.448V20.817H372.592C373.456 19.377 374.576 18.337 375.952 17.697C377.328 17.025 378.736 16.689 380.176 16.689C382 16.689 383.488 16.945 384.64 17.457C385.824 17.937 386.752 18.625 387.424 19.521C388.096 20.385 388.56 21.457 388.816 22.737C389.104 23.985 389.248 25.377 389.248 26.913V42.177H382.432V28.161C382.432 26.113 382.112 24.593 381.472 23.601C380.832 22.577 379.696 22.065 378.064 22.065C376.208 22.065 374.864 22.625 374.032 23.745C373.2 24.833 372.784 26.641 372.784 29.169V42.177H365.968V17.361Z" fill="#2463EB"/>
<path d="M411.125 27.105C410.805 25.377 410.229 24.065 409.397 23.169C408.597 22.273 407.365 21.825 405.701 21.825C404.613 21.825 403.701 22.017 402.965 22.401C402.261 22.753 401.685 23.201 401.237 23.745C400.821 24.289 400.517 24.865 400.325 25.473C400.165 26.081 400.069 26.625 400.037 27.105H411.125ZM400.037 31.425C400.133 33.633 400.693 35.233 401.717 36.225C402.741 37.217 404.213 37.713 406.133 37.713C407.509 37.713 408.693 37.377 409.685 36.705C410.677 36.001 411.285 35.265 411.509 34.497H417.509C416.549 37.473 415.077 39.601 413.093 40.881C411.109 42.161 408.709 42.801 405.893 42.801C403.941 42.801 402.181 42.497 400.613 41.889C399.045 41.249 397.717 40.353 396.629 39.201C395.541 38.049 394.693 36.673 394.085 35.073C393.509 33.473 393.221 31.713 393.221 29.793C393.221 27.937 393.525 26.209 394.133 24.609C394.741 23.009 395.605 21.633 396.725 20.481C397.845 19.297 399.173 18.369 400.709 17.697C402.277 17.025 404.005 16.689 405.893 16.689C408.005 16.689 409.845 17.105 411.413 17.937C412.981 18.737 414.261 19.825 415.253 21.201C416.277 22.577 417.013 24.145 417.461 25.905C417.909 27.665 418.069 29.505 417.941 31.425H400.037Z" fill="#2463EB"/>
<path d="M421.984 17.361H428.464V21.969H428.56C428.88 21.201 429.312 20.497 429.856 19.857C430.4 19.185 431.024 18.625 431.728 18.177C432.432 17.697 433.184 17.329 433.984 17.073C434.784 16.817 435.616 16.689 436.48 16.689C436.928 16.689 437.424 16.769 437.968 16.929V23.265C437.648 23.201 437.264 23.153 436.816 23.121C436.368 23.057 435.936 23.025 435.52 23.025C434.272 23.025 433.216 23.233 432.352 23.649C431.488 24.065 430.784 24.641 430.24 25.377C429.728 26.081 429.36 26.913 429.136 27.873C428.912 28.833 428.8 29.873 428.8 30.993V42.177H421.984V17.361Z" fill="#2463EB"/>
</svg>
